<?xml version="1.0" encoding="UTF-8"?>
<svg version="1.1" xmlns="http://www.w3.org/2000/svg" width="577" height="433">
<path d="M0 0 C10.23138601 8.23079285 19.32455824 17.56070744 25.86376953 29.03735352 C25.86376953 30.02735352 25.86376953 31.01735352 25.86376953 32.03735352 C26.52376953 32.03735352 27.18376953 32.03735352 27.86376953 32.03735352 C41.0455504 61.47064504 46.32157132 92.07982552 34.74047852 123.27661133 C32.00191663 130.146586 28.61411891 136.67121424 24.86376953 143.03735352 C24.35201172 143.96290039 23.84025391 144.88844727 23.31298828 145.84204102 C22.595625 146.9287207 22.595625 146.9287207 21.86376953 148.03735352 C21.20376953 148.03735352 20.54376953 148.03735352 19.86376953 148.03735352 C19.86376953 149.02735352 19.86376953 150.01735352 19.86376953 151.03735352 C18.74200059 152.22710846 17.60651358 153.40647985 16.41064453 154.52172852 C14.6548211 156.24208076 13.12330511 158.08552636 11.55126953 159.97485352 C8.52149149 163.49738666 5.27974349 166.17457615 1.46533203 168.81079102 C-0.28174631 169.96323123 -0.28174631 169.96323123 -1.13623047 172.03735352 C-2.12623047 172.03735352 -3.11623047 172.03735352 -4.13623047 172.03735352 C-4.46623047 173.02735352 -4.79623047 174.01735352 -5.13623047 175.03735352 C-7.55161872 176.62384469 -9.91640554 178.03818129 -12.44873047 179.41235352 C-13.17640625 179.81156006 -13.90408203 180.2107666 -14.65380859 180.62207031 C-29.68401334 188.74690725 -45.00355532 193.53537705 -62.13623047 194.03735352 C-63.09658203 194.07731445 -64.05693359 194.11727539 -65.04638672 194.15844727 C-92.04512575 194.77618423 -120.90142293 185.43143873 -140.69873047 166.59985352 C-141.50310547 165.75422852 -142.30748047 164.90860352 -143.13623047 164.03735352 C-143.64541016 163.56040039 -144.15458984 163.08344727 -144.67919922 162.59204102 C-152.72512977 154.96958049 -159.13140725 145.89704271 -164.13623047 136.03735352 C-164.63703125 135.1440332 -164.63703125 135.1440332 -165.14794922 134.23266602 C-178.57670795 109.49827246 -179.01187611 79.40060701 -171.82373047 52.78735352 C-169.15214678 44.53230128 -165.02541715 36.76942703 -161.13623047 29.03735352 C-160.47623047 29.03735352 -159.81623047 29.03735352 -159.13623047 29.03735352 C-159.03310547 28.48047852 -158.92998047 27.92360352 -158.82373047 27.34985352 C-157.99444638 24.56044341 -156.79323991 22.42344711 -155.13623047 20.03735352 C-154.47623047 20.03735352 -153.81623047 20.03735352 -153.13623047 20.03735352 C-153.13623047 19.04735352 -153.13623047 18.05735352 -153.13623047 17.03735352 C-150.88623047 14.59985352 -150.88623047 14.59985352 -148.13623047 12.03735352 C-147.41435547 11.27422852 -146.69248047 10.51110352 -145.94873047 9.72485352 C-144.13623047 8.03735352 -144.13623047 8.03735352 -142.13623047 8.03735352 C-141.64123047 6.55235352 -141.64123047 6.55235352 -141.13623047 5.03735352 C-103.35700133 -32.14457556 -40.56029063 -31.60942972 0 0 Z " fill="#28383C" transform="translate(358.13623046875,127.962646484375)"/>
<path d="M0 0 C10.23138601 8.23079285 19.32455824 17.56070744 25.86376953 29.03735352 C25.86376953 30.02735352 25.86376953 31.01735352 25.86376953 32.03735352 C26.52376953 32.03735352 27.18376953 32.03735352 27.86376953 32.03735352 C41.0455504 61.47064504 46.32157132 92.07982552 34.74047852 123.27661133 C32.00191663 130.146586 28.61411891 136.67121424 24.86376953 143.03735352 C24.35201172 143.96290039 23.84025391 144.88844727 23.31298828 145.84204102 C22.595625 146.9287207 22.595625 146.9287207 21.86376953 148.03735352 C21.20376953 148.03735352 20.54376953 148.03735352 19.86376953 148.03735352 C19.86376953 149.02735352 19.86376953 150.01735352 19.86376953 151.03735352 C18.74200059 152.22710846 17.60651358 153.40647985 16.41064453 154.52172852 C14.6548211 156.24208076 13.12330511 158.08552636 11.55126953 159.97485352 C8.52149149 163.49738666 5.27974349 166.17457615 1.46533203 168.81079102 C-0.28174631 169.96323123 -0.28174631 169.96323123 -1.13623047 172.03735352 C-2.12623047 172.03735352 -3.11623047 172.03735352 -4.13623047 172.03735352 C-4.46623047 173.02735352 -4.79623047 174.01735352 -5.13623047 175.03735352 C-7.55161872 176.62384469 -9.91640554 178.03818129 -12.44873047 179.41235352 C-13.17640625 179.81156006 -13.90408203 180.2107666 -14.65380859 180.62207031 C-29.68401334 188.74690725 -45.00355532 193.53537705 -62.13623047 194.03735352 C-63.09658203 194.07731445 -64.05693359 194.11727539 -65.04638672 194.15844727 C-92.04512575 194.77618423 -120.90142293 185.43143873 -140.69873047 166.59985352 C-141.50310547 165.75422852 -142.30748047 164.90860352 -143.13623047 164.03735352 C-143.64541016 163.56040039 -144.15458984 163.08344727 -144.67919922 162.59204102 C-152.72512977 154.96958049 -159.13140725 145.89704271 -164.13623047 136.03735352 C-164.63703125 135.1440332 -164.63703125 135.1440332 -165.14794922 134.23266602 C-178.57670795 109.49827246 -179.01187611 79.40060701 -171.82373047 52.78735352 C-169.15214678 44.53230128 -165.02541715 36.76942703 -161.13623047 29.03735352 C-160.47623047 29.03735352 -159.81623047 29.03735352 -159.13623047 29.03735352 C-159.03310547 28.48047852 -158.92998047 27.92360352 -158.82373047 27.34985352 C-157.99444638 24.56044341 -156.79323991 22.42344711 -155.13623047 20.03735352 C-154.47623047 20.03735352 -153.81623047 20.03735352 -153.13623047 20.03735352 C-153.13623047 19.04735352 -153.13623047 18.05735352 -153.13623047 17.03735352 C-150.88623047 14.59985352 -150.88623047 14.59985352 -148.13623047 12.03735352 C-147.41435547 11.27422852 -146.69248047 10.51110352 -145.94873047 9.72485352 C-144.13623047 8.03735352 -144.13623047 8.03735352 -142.13623047 8.03735352 C-141.64123047 6.55235352 -141.64123047 6.55235352 -141.13623047 5.03735352 C-103.35700133 -32.14457556 -40.56029063 -31.60942972 0 0 Z M-133.13623047 7.03735352 C-133.96380859 7.73473633 -134.79138672 8.43211914 -135.64404297 9.15063477 C-155.22487234 26.00691448 -167.4606704 49.66735235 -169.39306641 75.46630859 C-170.63011514 104.70876611 -165.00587406 130.80622521 -144.95654297 153.02368164 C-137.10931489 161.41559967 -128.50475701 169.83788713 -118.13623047 175.03735352 C-115.8502943 174.86816571 -115.8502943 174.86816571 -114.13623047 174.03735352 C-115.45306173 170.08685972 -117.17598352 169.52690149 -120.69873047 167.41235352 C-122.52489626 166.30967507 -124.34149328 165.19047955 -126.13623047 164.03735352 C-126.13623047 163.70735352 -126.13623047 163.37735352 -126.13623047 163.03735352 C-125.14623047 162.70735352 -124.15623047 162.37735352 -123.13623047 162.03735352 C-122.33059409 159.93150913 -122.33059409 159.93150913 -121.94873047 157.47485352 C-121.71089844 156.23541992 -121.71089844 156.23541992 -121.46826172 154.97094727 C-121.35869141 154.33286133 -121.24912109 153.69477539 -121.13623047 153.03735352 C-120.48138672 153.47305664 -119.82654297 153.90875977 -119.15185547 154.35766602 C-104.45834985 163.94580104 -89.09096622 171.21414438 -71.20654297 171.13500977 C-69.91748047 171.13178711 -68.62841797 171.12856445 -67.30029297 171.12524414 C-65.95393811 171.11689084 -64.60758395 171.10842592 -63.26123047 171.09985352 C-61.89144043 171.09483182 -60.52164862 171.09027009 -59.15185547 171.08618164 C-55.81326857 171.07442605 -52.47477232 171.05799316 -49.13623047 171.03735352 C-49.13623047 170.37735352 -49.13623047 169.71735352 -49.13623047 169.03735352 C-47.89873047 168.81047852 -46.66123047 168.58360352 -45.38623047 168.34985352 C-30.6892048 165.05052122 -18.84623042 157.35432594 -8.13623047 147.03735352 C-7.54712891 146.4946582 -6.95802734 145.95196289 -6.35107422 145.39282227 C-4.91375649 144.09249418 -4.91375649 144.09249418 -5.13623047 142.03735352 C-4.14623047 141.70735352 -3.15623047 141.37735352 -2.13623047 141.03735352 C14.09044478 123.18801074 18.97316715 99.14019798 18.05029297 75.81665039 C16.91960276 58.96877433 9.03720737 42.47939129 -2.13623047 30.03735352 C-2.89935547 29.02672852 -3.66248047 28.01610352 -4.44873047 26.97485352 C-15.47798141 14.91962574 -30.37983866 6.21452882 -46.13623047 2.03735352 C-47.32216797 1.68286133 -48.50810547 1.32836914 -49.72998047 0.96313477 C-55.15225946 -0.36879875 -60.57845236 -0.34607694 -66.13623047 -0.33764648 C-67.79247437 -0.33522949 -67.79247437 -0.33522949 -69.48217773 -0.33276367 C-78.60032738 -0.19701949 -86.506359 1.08261594 -95.13623047 4.03735352 C-96.07337891 4.34930664 -97.01052734 4.66125977 -97.97607422 4.98266602 C-112.23732471 10.21252367 -127.54082621 20.65497458 -135.13623047 34.03735352 C-135.90451172 34.75793945 -136.67279297 35.47852539 -137.46435547 36.22094727 C-140.49107342 39.41139119 -142.28387102 42.49301709 -144.19873047 46.41235352 C-144.54234619 47.10699707 -144.88596191 47.80164063 -145.23999023 48.51733398 C-154.85445499 68.70428845 -155.53862316 91.23401395 -149.10498047 112.43579102 C-146.08383556 120.86641837 -141.70599589 128.38192874 -137.13623047 136.03735352 C-136.80623047 136.69735352 -136.47623047 137.35735352 -136.13623047 138.03735352 C-136.79623047 138.03735352 -137.45623047 138.03735352 -138.13623047 138.03735352 C-139.12623047 139.02735352 -139.12623047 139.02735352 -140.13623047 140.03735352 C-141.12623047 139.70735352 -142.11623047 139.37735352 -143.13623047 139.03735352 C-144.12623047 140.68735352 -145.11623047 142.33735352 -146.13623047 144.03735352 C-153.67022885 132.35391948 -160.07353971 120.72818967 -163.13623047 107.03735352 C-163.34119141 106.26004883 -163.54615234 105.48274414 -163.75732422 104.68188477 C-169.02784009 81.81875038 -164.28987403 55.03092567 -151.94189453 35.1105957 C-140.4965093 17.71749293 -140.4965093 17.71749293 -135.13623047 15.03735352 C-135.13623047 14.37735352 -135.13623047 13.71735352 -135.13623047 13.03735352 C-134.58451172 12.79243164 -134.03279297 12.54750977 -133.46435547 12.29516602 C-130.66150578 10.78087474 -128.37233281 8.90540204 -125.88623047 6.91235352 C-105.22647224 -8.95052649 -79.79189981 -14.30147491 -54.13623047 -11.96264648 C-39.05022346 -9.51260856 -20.27492191 -4.10133792 -9.13623047 7.03735352 C-11.11623047 8.68735352 -13.09623047 10.33735352 -15.13623047 12.03735352 C-14.85349828 16.38043405 -13.2445725 18.2664253 -10.02685547 21.09399414 C-9.48544922 21.54967773 -8.94404297 22.00536133 -8.38623047 22.47485352 C-4.19715022 26.07356094 -0.57985554 29.70731384 2.86376953 34.03735352 C5.82177481 33.32966993 5.82177481 33.32966993 8.86376953 32.03735352 C9.52376953 30.71735352 10.18376953 29.39735352 10.86376953 28.03735352 C7.89376953 24.40735352 4.92376953 20.77735352 1.86376953 17.03735352 C6.86376953 22.03735352 6.86376953 22.03735352 8.98876953 24.34985352 C10.81499085 26.37183588 10.81499085 26.37183588 13.86376953 26.03735352 C12.34920895 16.1361963 -0.69296817 7.63586153 -8.13623047 2.03735352 C-19.90429022 -6.0379207 -32.10690859 -12.14183742 -46.13623047 -14.96264648 C-47.03212891 -15.16760742 -47.92802734 -15.37256836 -48.85107422 -15.58374023 C-78.49429847 -21.61216592 -110.61442214 -13.10758577 -133.13623047 7.03735352 Z " fill="#426063" transform="translate(358.13623046875,127.962646484375)"/>
<path d="M0 0 C0.67160156 0.26167969 1.34320313 0.52335937 2.03515625 0.79296875 C17.65226779 7.0106225 34.69877989 18.81288413 44 33 C44 33.99 44 34.98 44 36 C39.91944849 35.49452628 38.33727705 33.49911118 35.75 30.4375 C35.04359375 29.61121094 34.3371875 28.78492188 33.609375 27.93359375 C32.81273437 26.97646484 32.81273437 26.97646484 32 26 C32.64388672 26.85851562 32.64388672 26.85851562 33.30078125 27.734375 C35.8671875 31.15625 38.43359375 34.578125 41 38 C40.375 39.875 40.375 39.875 39 42 C35.875 43.25 35.875 43.25 33 44 C32.20335937 43.11957031 31.40671875 42.23914063 30.5859375 41.33203125 C29.51582971 40.15866744 28.44550563 38.98550085 27.375 37.8125 C26.85292969 37.23435547 26.33085937 36.65621094 25.79296875 36.06054688 C23.19975146 33.22721687 20.65200081 30.66539877 17.6015625 28.32421875 C16.31378906 27.17373047 16.31378906 27.17373047 15 26 C15 22 15 22 16.3125 20.515625 C17.875 19.34375 19.4375 18.171875 21 17 C-1.52239628 0.73382491 -27.05394628 -5.25406358 -54.54956055 -1.2199707 C-71.71190606 1.81550235 -89.02096708 9.5568355 -101.58203125 21.78515625 C-103 23 -103 23 -105 23 C-105 23.66 -105 24.32 -105 25 C-106.13566395 26.17007801 -107.27821987 27.33403559 -108.44921875 28.46875 C-125.41618844 45.22202989 -134.78103761 68.55582661 -135.41967773 92.28613281 C-135.56305944 115.12507032 -129.17992475 135.24395324 -116 154 C-114.68 152.35 -113.36 150.7 -112 149 C-111.01 149.33 -110.02 149.66 -109 150 C-108.67 149.34 -108.34 148.68 -108 148 C-107.01 148 -106.02 148 -105 148 C-105.57878906 147.31421875 -106.15757812 146.6284375 -106.75390625 145.921875 C-120.18867003 128.44499969 -125.11006554 105.65146046 -122.78173828 83.96728516 C-120.95909273 71.18954682 -115.95976292 51.76657617 -104.94140625 43.4453125 C-104.30074219 42.96835938 -103.66007812 42.49140625 -103 42 C-101.97419299 40.34909184 -100.9752407 38.68127433 -100 37 C-87.21618426 21.92575061 -68.17758107 13.38959185 -49 10 C-22.41359994 8.20696372 0.07668574 14.38914046 20.5625 31.75 C36.40803015 46.24050226 47.21769016 67.03386878 48.3828125 88.5703125 C49.07483761 111.29777492 42.95827828 134.99659518 27 152 C26.34 152 25.68 152 25 152 C24.61134766 152.87205078 24.61134766 152.87205078 24.21484375 153.76171875 C16.97643431 167.09808084 -0.49504182 173.98456355 -14.125 178.51953125 C-16 179 -16 179 -19 179 C-19 179.66 -19 180.32 -19 181 C-44.97363731 181.68916682 -65.87575092 180.0657408 -88 165 C-88.99 164.34 -89.98 163.68 -91 163 C-91.66 165.97 -92.32 168.94 -93 172 C-94.32 172.33 -95.64 172.66 -97 173 C-95.39612733 174.1254191 -93.79189084 175.25031972 -92.1875 176.375 C-91.29417969 177.00148438 -90.40085938 177.62796875 -89.48046875 178.2734375 C-87.66732122 179.53550239 -85.83811789 180.77458808 -84 182 C-84.33 182.99 -84.66 183.98 -85 185 C-97.46607443 183.506786 -111.67764909 167.41418342 -119.1875 157.875 C-137.73987545 133.12002829 -142.41086378 104.88397026 -138.16870117 74.46704102 C-136.86956712 66.83696584 -134.43211946 59.91099805 -131 53 C-130.49597656 51.95457031 -129.99195313 50.90914062 -129.47265625 49.83203125 C-116.67468369 24.62755352 -94.04780978 5.30043419 -67.125 -3.5 C-65.09363641 -4.04033762 -63.05156856 -4.54232193 -61 -5 C-59.52466797 -5.33257812 -59.52466797 -5.33257812 -58.01953125 -5.671875 C-39.23216407 -9.19599457 -17.4360453 -8.28612061 0 0 Z M-88 53 C-93.34040256 59.3608009 -96.94709729 66.30623786 -100 74 C-100.32097656 74.7425 -100.64195312 75.485 -100.97265625 76.25 C-105.6517392 88.78558968 -104.33898078 106.93785823 -99 119 C-98.54882812 120.05445313 -98.09765625 121.10890625 -97.6328125 122.1953125 C-90.35557701 138.0380979 -78.12324585 150.20874015 -61.83984375 156.96875 C-45.79630033 162.79474101 -27.26927734 163.93958289 -11.4921875 156.77734375 C-6.38874163 154.1799524 -1.61718687 151.38904625 3 148 C3.96292969 147.31164062 3.96292969 147.31164062 4.9453125 146.609375 C16.18351642 137.84055221 24.79010113 121.77632068 28 108 C28.40359909 104.05230726 28.42909442 100.15296495 28.375 96.1875 C28.36557373 95.12450684 28.35614746 94.06151367 28.34643555 92.96630859 C28.00905159 75.45191455 21.7608214 61.32046377 9.68359375 48.55078125 C-4.5746405 35.07068499 -20.78986722 29.20843565 -40.13061523 29.55102539 C-59.58386092 30.28334689 -75.030691 38.77240412 -88 53 Z " fill="#446266" transform="translate(328,118)"/>
<path d="M0 0 C18.28152495 -0.7146538 35.35240259 4.47496125 49.0012207 16.93554688 C50.63187586 18.48372838 52.22772068 20.06127762 53.8203125 21.6484375 C57.62055396 25.22138881 57.62055396 25.22138881 62.52734375 26.1875 C62.85734375 24.8675 63.18734375 23.5475 63.52734375 22.1875 C64.51734375 22.5175 65.50734375 22.8475 66.52734375 23.1875 C66.85734375 21.5375 67.18734375 19.8875 67.52734375 18.1875 C68.51734375 18.1875 69.50734375 18.1875 70.52734375 18.1875 C72.46484375 20.3125 72.46484375 20.3125 74.52734375 23.1875 C75.14609375 24.0125 75.76484375 24.8375 76.40234375 25.6875 C87.87207168 43.47912522 91.56083886 65.04761372 87.796875 85.79296875 C84.58031805 100.58429637 77.99770623 116.03142109 67.52734375 127.1875 C66.86734375 127.1875 66.20734375 127.1875 65.52734375 127.1875 C65.13869141 128.05955078 65.13869141 128.05955078 64.7421875 128.94921875 C57.50377806 142.28558084 40.03230193 149.17206355 26.40234375 153.70703125 C24.52734375 154.1875 24.52734375 154.1875 21.52734375 154.1875 C21.52734375 154.8475 21.52734375 155.5075 21.52734375 156.1875 C-4.42654236 156.87614276 -25.37289465 155.2832033 -47.47265625 140.1875 C-46.47446731 138.16402196 -45.45881258 136.16245421 -44.3671875 134.1875 C-43.83158203 133.1975 -43.83158203 133.1975 -43.28515625 132.1875 C-42.92035156 131.5275 -42.55554688 130.8675 -42.1796875 130.1875 C-41.30988991 127.72707809 -41.52596917 126.59407821 -42.47265625 124.1875 C-43.5824434 123.01045302 -44.70298111 121.84144453 -45.87890625 120.73046875 C-59.48836022 107.55464934 -66.51992876 91.4744766 -66.90356445 72.53540039 C-66.9360086 57.59547046 -64.65409516 45.96498253 -56.47265625 33.1875 C-55.951875 32.34832031 -55.43109375 31.50914062 -54.89453125 30.64453125 C-51.90487641 25.96412501 -51.90487641 25.96412501 -50.47265625 24.1875 C-49.81265625 24.1875 -49.15265625 24.1875 -48.47265625 24.1875 C-48.20066406 23.58421875 -47.92867187 22.9809375 -47.6484375 22.359375 C-42.11153139 12.13173447 -27.38416151 5.97591091 -16.70678711 2.63964844 C-10.95726211 0.94856781 -5.94260209 0.32086041 0 0 Z M-47.47265625 28.1875 C-52.81305881 34.5483009 -56.41975354 41.49373786 -59.47265625 49.1875 C-59.79363281 49.93 -60.11460937 50.6725 -60.4453125 51.4375 C-65.12439545 63.97308968 -63.81163703 82.12535823 -58.47265625 94.1875 C-58.02148438 95.24195313 -57.5703125 96.29640625 -57.10546875 97.3828125 C-49.82823326 113.2255979 -37.5959021 125.39624015 -21.3125 132.15625 C-5.26895658 137.98224101 13.25806641 139.12708289 29.03515625 131.96484375 C34.13860212 129.3674524 38.91015688 126.57654625 43.52734375 123.1875 C44.49027344 122.49914062 44.49027344 122.49914062 45.47265625 121.796875 C56.71086017 113.02805221 65.31744488 96.96382068 68.52734375 83.1875 C68.93094284 79.23980726 68.95643817 75.34046495 68.90234375 71.375 C68.89291748 70.31200684 68.88349121 69.24901367 68.8737793 68.15380859 C68.53639534 50.63941455 62.28816515 36.50796377 50.2109375 23.73828125 C35.95270325 10.25818499 19.73747653 4.39593565 0.39672852 4.73852539 C-19.05651717 5.47084689 -34.50334725 13.95990412 -47.47265625 28.1875 Z " fill="#446366" transform="translate(287.47265625,142.8125)"/>
<path d="M0 0 C10.07251516 5.24214232 16.69365284 10.91950568 22 21 C22.34417969 21.60328125 22.68835938 22.2065625 23.04296875 22.828125 C27.02274338 31.12399324 26.26190701 43.43591185 23.375 52 C18.61014796 62.97410175 11.4190306 71.65432242 0.5625 77 C-9.6933088 80.86887928 -22.53774399 80.71515446 -32.609375 76.328125 C-43.81979136 70.10011591 -51.04043166 61.43476978 -55.25 49.4375 C-57.70972897 38.07802439 -56.64226074 26.84527955 -50.71484375 16.828125 C-44.62009576 8.06798582 -37.14057851 2.23985992 -27 -1 C-19.10327294 -3.63224235 -7.69743921 -2.91971832 0 0 Z " fill="#DED4BD" transform="translate(306,175)"/>
<path d="M0 0 C10.23138601 8.23079285 19.32455824 17.56070744 25.86376953 29.03735352 C25.86376953 30.02735352 25.86376953 31.01735352 25.86376953 32.03735352 C26.52376953 32.03735352 27.18376953 32.03735352 27.86376953 32.03735352 C41.0455504 61.47064504 46.32157132 92.07982552 34.74047852 123.27661133 C32.00191663 130.146586 28.61411891 136.67121424 24.86376953 143.03735352 C24.35201172 143.96290039 23.84025391 144.88844727 23.31298828 145.84204102 C22.595625 146.9287207 22.595625 146.9287207 21.86376953 148.03735352 C21.20376953 148.03735352 20.54376953 148.03735352 19.86376953 148.03735352 C19.86376953 149.02735352 19.86376953 150.01735352 19.86376953 151.03735352 C18.74200059 152.22710846 17.60651358 153.40647985 16.41064453 154.52172852 C14.6548211 156.24208076 13.12330511 158.08552636 11.55126953 159.97485352 C8.52149149 163.49738666 5.27974349 166.17457615 1.46533203 168.81079102 C-0.28174631 169.96323123 -0.28174631 169.96323123 -1.13623047 172.03735352 C-2.12623047 172.03735352 -3.11623047 172.03735352 -4.13623047 172.03735352 C-4.46623047 173.02735352 -4.79623047 174.01735352 -5.13623047 175.03735352 C-7.55161872 176.62384469 -9.91640554 178.03818129 -12.44873047 179.41235352 C-13.17640625 179.81156006 -13.90408203 180.2107666 -14.65380859 180.62207031 C-29.68401334 188.74690725 -45.00355532 193.53537705 -62.13623047 194.03735352 C-63.09658203 194.07731445 -64.05693359 194.11727539 -65.04638672 194.15844727 C-92.04512575 194.77618423 -120.90142293 185.43143873 -140.69873047 166.59985352 C-141.50310547 165.75422852 -142.30748047 164.90860352 -143.13623047 164.03735352 C-143.64541016 163.56040039 -144.15458984 163.08344727 -144.67919922 162.59204102 C-152.72512977 154.96958049 -159.13140725 145.89704271 -164.13623047 136.03735352 C-164.63703125 135.1440332 -164.63703125 135.1440332 -165.14794922 134.23266602 C-178.57670795 109.49827246 -179.01187611 79.40060701 -171.82373047 52.78735352 C-169.15214678 44.53230128 -165.02541715 36.76942703 -161.13623047 29.03735352 C-160.47623047 29.03735352 -159.81623047 29.03735352 -159.13623047 29.03735352 C-159.03310547 28.48047852 -158.92998047 27.92360352 -158.82373047 27.34985352 C-157.99444638 24.56044341 -156.79323991 22.42344711 -155.13623047 20.03735352 C-154.47623047 20.03735352 -153.81623047 20.03735352 -153.13623047 20.03735352 C-153.13623047 19.04735352 -153.13623047 18.05735352 -153.13623047 17.03735352 C-150.88623047 14.59985352 -150.88623047 14.59985352 -148.13623047 12.03735352 C-147.41435547 11.27422852 -146.69248047 10.51110352 -145.94873047 9.72485352 C-144.13623047 8.03735352 -144.13623047 8.03735352 -142.13623047 8.03735352 C-141.64123047 6.55235352 -141.64123047 6.55235352 -141.13623047 5.03735352 C-103.35700133 -32.14457556 -40.56029063 -31.60942972 0 0 Z M-133.13623047 7.03735352 C-133.96380859 7.73473633 -134.79138672 8.43211914 -135.64404297 9.15063477 C-155.22487234 26.00691448 -167.4606704 49.66735235 -169.39306641 75.46630859 C-170.62964024 104.69753998 -165.01449527 130.82583638 -144.95214844 153.02587891 C-143.36778592 154.71836126 -141.76167216 156.38436197 -140.13623047 158.03735352 C-139.29189453 158.89844727 -138.44755859 159.75954102 -137.57763672 160.64672852 C-131.11228148 166.8042097 -123.73052931 171.41957473 -116.13623047 176.03735352 C-115.25193359 176.62387695 -114.36763672 177.21040039 -113.45654297 177.81469727 C-110.1323968 179.56630964 -107.71385528 178.80899808 -104.13623047 178.03735352 C-105.52818962 175.25343521 -107.29198825 175.05836354 -110.13623047 174.03735352 C-109.27384766 174.32610352 -108.41146484 174.61485352 -107.52294922 174.91235352 C-104.33638789 175.97086524 -101.14859662 177.01975633 -97.94873047 178.03735352 C-96.92392578 178.36735352 -95.89912109 178.69735352 -94.84326172 179.03735352 C-85.74424241 181.49188349 -76.98871039 182.42363063 -67.57373047 182.41235352 C-65.88594482 182.41428711 -65.88594482 182.41428711 -64.1640625 182.41625977 C-54.42186283 182.29422225 -45.46910817 180.73834138 -36.13623047 178.03735352 C-54.44670686 185.62547887 -75.15304592 184.71470067 -94.13623047 180.03735352 C-95.04373047 179.8246582 -95.95123047 179.61196289 -96.88623047 179.39282227 C-98.64318218 178.96883566 -100.39169389 178.50983217 -102.13623047 178.03735352 C-102.46623047 179.35735352 -102.79623047 180.67735352 -103.13623047 182.03735352 C-100.14835354 183.11917102 -97.17318508 184.10741707 -94.13623047 185.03735352 C-93.21197266 185.32352539 -92.28771484 185.60969727 -91.33544922 185.90454102 C-74.05720154 190.4231363 -55.02795419 189.56738211 -38.13623047 184.03735352 C-36.30295401 183.53714502 -34.46962751 183.03711988 -32.63623047 182.53735352 C-15.70143225 177.23994575 0.58107185 164.47908594 11.86376953 151.03735352 C12.67587266 148.87224905 12.67587266 148.87224905 12.86376953 147.03735352 C13.52376953 147.03735352 14.18376953 147.03735352 14.86376953 147.03735352 C29.58551493 126.50507852 36.77060773 103.29799395 34.86376953 78.03735352 C34.80189453 77.21380371 34.74001953 76.39025391 34.67626953 75.54174805 C33.44186217 61.43147995 29.18904505 48.68790455 22.86376953 36.03735352 C22.20376953 36.03735352 21.54376953 36.03735352 20.86376953 36.03735352 C20.74775391 35.45985352 20.63173828 34.88235352 20.51220703 34.28735352 C15.50886324 16.92635337 -6.54556693 2.16423309 -21.13623047 -5.96264648 C-29.25408517 -10.21898311 -37.15582304 -13.15699865 -46.13623047 -14.96264648 C-47.03212891 -15.16760742 -47.92802734 -15.37256836 -48.85107422 -15.58374023 C-78.49429847 -21.61216592 -110.61442214 -13.10758577 -133.13623047 7.03735352 Z " fill="#2B3E40" transform="translate(358.13623046875,127.962646484375)"/>
<path d="M0 0 C0.67160156 0.26167969 1.34320313 0.52335937 2.03515625 0.79296875 C17.65226779 7.0106225 34.69877989 18.81288413 44 33 C44 33.99 44 34.98 44 36 C39.91944849 35.49452628 38.33727705 33.49911118 35.75 30.4375 C35.04359375 29.61121094 34.3371875 28.78492188 33.609375 27.93359375 C32.81273437 26.97646484 32.81273437 26.97646484 32 26 C32.64388672 26.85851562 32.64388672 26.85851562 33.30078125 27.734375 C35.8671875 31.15625 38.43359375 34.578125 41 38 C40.375 39.875 40.375 39.875 39 42 C35.875 43.25 35.875 43.25 33 44 C32.20335937 43.11957031 31.40671875 42.23914063 30.5859375 41.33203125 C29.51582971 40.15866744 28.44550563 38.98550085 27.375 37.8125 C26.85292969 37.23435547 26.33085937 36.65621094 25.79296875 36.06054688 C23.19975146 33.22721687 20.65200081 30.66539877 17.6015625 28.32421875 C16.31378906 27.17373047 16.31378906 27.17373047 15 26 C15 22 15 22 16.3125 20.515625 C17.875 19.34375 19.4375 18.171875 21 17 C-1.52239628 0.73382491 -27.05394628 -5.25406358 -54.54956055 -1.2199707 C-71.71190606 1.81550235 -89.02096708 9.5568355 -101.58203125 21.78515625 C-103 23 -103 23 -105 23 C-105 23.66 -105 24.32 -105 25 C-106.13566395 26.17007801 -107.27821987 27.33403559 -108.44921875 28.46875 C-125.41618844 45.22202989 -134.78103761 68.55582661 -135.41967773 92.28613281 C-135.56305944 115.12507032 -129.17992475 135.24395324 -116 154 C-114.68 152.35 -113.36 150.7 -112 149 C-111.01 149.33 -110.02 149.66 -109 150 C-108.67 149.34 -108.34 148.68 -108 148 C-107.01 148 -106.02 148 -105 148 C-104.34 147.67 -103.68 147.34 -103 147 C-102.34786708 144.97536745 -102.34786708 144.97536745 -102 143 C-101.05125 142.9175 -100.1025 142.835 -99.125 142.75 C-98.09375 142.5025 -97.0625 142.255 -96 142 C-94.77763798 140.01437054 -94.77763798 140.01437054 -94 138 C-81.56867778 148.4251146 -81.56867778 148.4251146 -81 153 C-82.44407094 157.61571141 -84.72576625 161.55758071 -89 164 C-89.66 163.67 -90.32 163.34 -91 163 C-91.66 165.97 -92.32 168.94 -93 172 C-94.32 172.33 -95.64 172.66 -97 173 C-95.39612733 174.1254191 -93.79189084 175.25031972 -92.1875 176.375 C-91.29417969 177.00148438 -90.40085938 177.62796875 -89.48046875 178.2734375 C-87.66732122 179.53550239 -85.83811789 180.77458808 -84 182 C-84.33 182.99 -84.66 183.98 -85 185 C-97.46607443 183.506786 -111.67764909 167.41418342 -119.1875 157.875 C-137.73987545 133.12002829 -142.41086378 104.88397026 -138.16870117 74.46704102 C-136.86956712 66.83696584 -134.43211946 59.91099805 -131 53 C-130.49597656 51.95457031 -129.99195313 50.90914062 -129.47265625 49.83203125 C-116.67468369 24.62755352 -94.04780978 5.30043419 -67.125 -3.5 C-65.09363641 -4.04033762 -63.05156856 -4.54232193 -61 -5 C-59.52466797 -5.33257812 -59.52466797 -5.33257812 -58.01953125 -5.671875 C-39.23216407 -9.19599457 -17.4360453 -8.28612061 0 0 Z " fill="#456164" transform="translate(328,118)"/>
<path d="M0 0 C5.56847732 2.27581247 9.7373809 6.00411451 13 11 C13.625 14.0625 13.625 14.0625 13 17 C10.37632897 20.20670904 7.84788585 22.4323428 4 24 C4.56820748 29.45479185 5.94637945 33.91059256 8 39 C8.66 38.01 9.32 37.02 10 36 C10.66 36 11.32 36 12 36 C10.125 41.75 10.125 41.75 9 44 C10.98 43.505 10.98 43.505 13 43 C13.8125 45.0625 13.8125 45.0625 14 48 C11.98264125 51.90078497 9.64956606 54.56695596 6 57 C1.67289954 57.37710329 -2.66233654 57.14688384 -7 57 C-8.22847656 56.95875 -9.45695312 56.9175 -10.72265625 56.875 C-24.80260523 56.15217909 -24.80260523 56.15217909 -29.93359375 51.09375 C-34.66239969 45.84163555 -36.15043255 43.24617265 -36.1875 36.0625 C-36.20167969 34.81597656 -36.21585937 33.56945312 -36.23046875 32.28515625 C-36 29 -36 29 -34 26 C-33.9744911 23.4745777 -33.9744911 23.4745777 -34.375 20.8125 C-34.48585938 19.91144531 -34.59671875 19.01039063 -34.7109375 18.08203125 C-34.80632812 17.39496094 -34.90171875 16.70789063 -35 16 C-34.41992188 16.04640625 -33.83984375 16.0928125 -33.2421875 16.140625 C-29.14497505 16.32993515 -26.47978354 16.21726047 -22.6875 14.5 C-20.19383502 12.18031164 -19.36013739 10.97564752 -18 8 C-14.41677582 0.19264976 -8.0377611 -1.42865924 0 0 Z " fill="#54534E" transform="translate(301,183)"/>
<path d="M0 0 C9.93064903 8.64638464 16.69927624 17.4881667 17.67578125 30.95703125 C18.28311863 44.92213226 16.68976482 56.68768461 7.53515625 67.82421875 C-3.40123356 78.82286505 -14.35215973 84.20525036 -29.83984375 84.38671875 C-43.50970093 84.21381039 -52.47354874 79.99696566 -62.77734375 70.88671875 C-72.76909473 60.38518455 -76.41236211 47.60419307 -76.08203125 33.50390625 C-75.40722929 19.91306016 -69.12251739 9.77131624 -59.46484375 0.51171875 C-42.1202698 -14.05652925 -17.69771611 -13.46619468 0 0 Z M-63.015625 13.44140625 C-65.7871171 17.28831103 -67.34293632 21.39710453 -68.77734375 25.88671875 C-69.10734375 26.87671875 -69.43734375 27.86671875 -69.77734375 28.88671875 C-70.30351808 37.3257455 -70.36089859 45.10076225 -66.77734375 52.88671875 C-66.24947266 54.13388672 -66.24947266 54.13388672 -65.7109375 55.40625 C-61.26067396 65.20270472 -54.44808807 71.23842944 -44.77734375 75.88671875 C-35.01250843 79.29332797 -23.01697014 79.61263205 -13.27734375 75.94921875 C-3.44340927 71.10035355 3.47387404 63.68206159 8.22265625 53.88671875 C8.73119141 52.87931641 8.73119141 52.87931641 9.25 51.8515625 C12.84573802 43.25161765 12.84876862 31.07902336 9.59765625 22.38671875 C8.85155705 20.86354046 8.05991144 19.36175768 7.22265625 17.88671875 C6.82175781 17.12101562 6.42085938 16.3553125 6.0078125 15.56640625 C1.12403921 7.21444613 -7.0352001 1.73957072 -15.77734375 -2.11328125 C-34.84587255 -6.51371097 -50.3940186 -1.18874655 -63.015625 13.44140625 Z " fill="#798170" transform="translate(319.77734375,176.11328125)"/>
<path d="M0 0 C19.11880314 -0.74738434 36.36627767 5.10297619 50.52734375 18.125 C64.91858571 31.95925875 73.20878713 49.00303952 73.77734375 69.125 C73.54984593 91.11645631 64.98994536 108.72489839 49.52734375 124.1875 C44.56221052 128.54271283 38.69030241 132.74419686 32.52734375 135.1875 C31.53734375 134.8575 30.54734375 134.5275 29.52734375 134.1875 C30.19378906 133.85878906 30.86023438 133.53007812 31.546875 133.19140625 C50.33842093 123.49339164 61.1835697 109.6677671 68.625 90.3359375 C74.05509467 72.80809703 71.07050804 53.3106675 63.07763672 37.21118164 C59.25814833 30.09023263 52.92250122 20.88507874 45.52734375 17.1875 C45.03234375 18.6725 45.03234375 18.6725 44.52734375 20.1875 C43.65335938 19.51654297 43.65335938 19.51654297 42.76171875 18.83203125 C26.26853717 6.66960647 8.90235696 4.37998488 -11.046875 6.58203125 C-27.32730272 10.0246865 -42.28624323 20.96727538 -51.47265625 34.6875 C-57.68958086 45.36271547 -61.84727478 56.22593506 -61.66015625 68.625 C-61.65918945 69.83639648 -61.65918945 69.83639648 -61.65820312 71.07226562 C-61.55073298 85.89120433 -56.67773078 98.8798882 -48.47265625 111.1875 C-48.47265625 112.5075 -48.47265625 113.8275 -48.47265625 115.1875 C-47.53982329 117.38817421 -47.53982329 117.38817421 -46.47265625 119.1875 C-58.63390795 109.92178442 -64.36806781 96.09026138 -66.47265625 81.1875 C-67.96005342 63.43150303 -66.21705565 48.40595906 -56.47265625 33.1875 C-55.951875 32.34832031 -55.43109375 31.50914062 -54.89453125 30.64453125 C-51.90487641 25.96412501 -51.90487641 25.96412501 -50.47265625 24.1875 C-49.81265625 24.1875 -49.15265625 24.1875 -48.47265625 24.1875 C-48.20066406 23.58421875 -47.92867187 22.9809375 -47.6484375 22.359375 C-42.11153139 12.13173447 -27.38416151 5.97591091 -16.70678711 2.63964844 C-10.95726211 0.94856781 -5.94260209 0.32086041 0 0 Z " fill="#465F62" transform="translate(287.47265625,142.8125)"/>
<path d="M0 0 C4.18310824 1.39436941 5.1459848 4.31743692 7.125 8 C9.21611827 12.2589409 9.21611827 12.2589409 12 16 C13.32 14.35 14.64 12.7 16 11 C16.99 11.33 17.98 11.66 19 12 C19.33 11.34 19.66 10.68 20 10 C20.99 10 21.98 10 23 10 C23.66 9.67 24.32 9.34 25 9 C25.65213292 6.97536745 25.65213292 6.97536745 26 5 C26.94875 4.9175 27.8975 4.835 28.875 4.75 C29.90625 4.5025 30.9375 4.255 32 4 C33.22236202 2.01437054 33.22236202 2.01437054 34 0 C46.43132222 10.4251146 46.43132222 10.4251146 47 15 C45.55592906 19.61571141 43.27423375 23.55758071 39 26 C38.34 25.67 37.68 25.34 37 25 C36.34 27.97 35.68 30.94 35 34 C33.02 34.495 33.02 34.495 31 35 C32.60387267 36.1254191 34.20810916 37.25031972 35.8125 38.375 C36.70582031 39.00148438 37.59914062 39.62796875 38.51953125 40.2734375 C40.33267878 41.53550239 42.16188211 42.77458808 44 44 C43.67 44.99 43.34 45.98 43 47 C30.93159733 45.55442001 17.21579735 30.23606692 9.85717773 21.05151367 C0.80627723 9.33125462 0.80627723 9.33125462 -1 4 C-0.61328125 1.75390625 -0.61328125 1.75390625 0 0 Z " fill="#5C7978" transform="translate(200,256)"/>
<path d="M0 0 C2.97 0 5.94 0 9 0 C9.495 1.485 9.495 1.485 10 3 C10.78375 3.0825 11.5675 3.165 12.375 3.25 C15 4 15 4 16.375 5.875 C17 8 17 8 16 11 C15.401875 10.525625 14.80375 10.05125 14.1875 9.5625 C10.19574195 6.71124425 6.78569844 6.24036533 2 7 C-0.82703515 9.17529352 -3.33204337 11.51939373 -5.86328125 14.03125 C-8 16 -8 16 -10 16 C-10 16.99 -10 17.98 -10 19 C-9.01 18.67 -8.02 18.34 -7 18 C-7.01047363 18.60473145 -7.02094727 19.20946289 -7.03173828 19.83251953 C-7.07354668 22.5966367 -7.09940451 25.36068708 -7.125 28.125 C-7.14175781 29.07632813 -7.15851563 30.02765625 -7.17578125 31.0078125 C-7.26209253 38.22389743 -7.26209253 38.22389743 -5 45 C0.28266444 48.51798127 7.83233907 48.62659255 14 49 C13.505 49.99 13.505 49.99 13 51 C-1.70128561 52.03368414 -1.70128561 52.03368414 -6.9375 48 C-8.77734375 46.3125 -8.77734375 46.3125 -10 45 C-10 45.99 -10 46.98 -10 48 C-8.68 48.66 -7.36 49.32 -6 50 C-6 50.33 -6 50.66 -6 51 C-12.63397168 51.72108388 -17.46243305 49.63868852 -23 46 C-26.94845487 41.09434395 -27.41903707 36.18079679 -27 30 C-25.625 26.3125 -25.625 26.3125 -24 23 C-23.4121875 21.7934375 -23.4121875 21.7934375 -22.8125 20.5625 C-22.544375 20.046875 -22.27625 19.53125 -22 19 C-23.32 18.67 -24.64 18.34 -26 18 C-26 17.01 -26 16.02 -26 15 C-24.02 15.495 -24.02 15.495 -22 16 C-22 16.66 -22 17.32 -22 18 C-19.36 18.33 -16.72 18.66 -14 19 C-14 18.01 -14 17.02 -14 16 C-14.66 15.67 -15.32 15.34 -16 15 C-15.38125 14.773125 -14.7625 14.54625 -14.125 14.3125 C-11.31610811 12.57759619 -11.05463619 11.09359949 -10 8 C-8.625 4.75 -8.625 4.75 -7 2 C-4.8125 1.125 -4.8125 1.125 -3 1 C-3 1.66 -3 2.32 -3 3 C-1.35 3 0.3 3 2 3 C2 2.34 2 1.68 2 1 C1.34 0.67 0.68 0.34 0 0 Z " fill="#A9A09D" transform="translate(294,186)"/>
<path d="M0 0 C0.66 0.99 1.32 1.98 2 3 C1.34 3 0.68 3 0 3 C0 3.66 0 4.32 0 5 C0.66 5.33 1.32 5.66 2 6 C1.34 6 0.68 6 0 6 C0.20625 6.598125 0.4125 7.19625 0.625 7.8125 C1 10 1 10 -1 13 C-1.45777217 17.61586934 -0.5776491 20.52741427 1.5 24.625 C3.33766283 28.26969795 4 29.81401588 4 34 C5.65 34 7.3 34 9 34 C8.34 35.32 7.68 36.64 7 38 C4.60347472 38.08139142 2.20974564 38.14067009 -0.1875 38.1875 C-1.19780273 38.22520508 -1.19780273 38.22520508 -2.22851562 38.26367188 C-6.71040724 38.32926053 -9.44431884 37.75173119 -13 35 C-16.85754615 29.67924668 -16.43989869 24.28077578 -16 18 C-15.93039062 16.95457031 -15.86078125 15.90914062 -15.7890625 14.83203125 C-15.21756781 9.72032878 -14.63457036 5.8921074 -10.8125 2.25 C-7.23857601 -0.28464484 -4.37224605 -0.77157283 0 0 Z " fill="#D7ABA8" transform="translate(304,194)"/>
<path d="M0 0 C5.94546733 0.84739994 9.83113558 6.05123091 14 10 C14.62390625 10.55945313 15.2478125 11.11890625 15.890625 11.6953125 C19.79680278 15.32769277 22.8794993 19.40312946 25.9375 23.75 C26.33976807 24.31750977 26.74203613 24.88501953 27.15649414 25.46972656 C30 29.62938358 30 29.62938358 30 33 C30.66 33 31.32 33 32 33 C42.65757597 56.7970532 42.65757597 56.7970532 41 62 C40.67 61.01 40.34 60.02 40 59 C38.68 59.99 37.36 60.98 36 62 C34.68373309 58.58477263 33.37264674 55.16757936 32.0625 51.75 C31.68931641 50.78191406 31.31613281 49.81382812 30.93164062 48.81640625 C30.39506836 47.41455078 30.39506836 47.41455078 29.84765625 45.984375 C29.51773682 45.12553711 29.18781738 44.26669922 28.84790039 43.38183594 C28.0945872 41.26570478 27.49832433 39.18819751 27 37 C26.34 37 25.68 37 25 37 C24.71769531 36.36835938 24.43539063 35.73671875 24.14453125 35.0859375 C18.64906728 23.90162079 9.73851512 15.6896966 1 7 C1.66 6.67 2.32 6.34 3 6 C2.67 4.68 2.34 3.36 2 2 C1.34 2 0.68 2 0 2 C0 1.34 0 0.68 0 0 Z " fill="#2D4143" transform="translate(354,127)"/>
<path d="M0 0 C7.47392234 2.76454762 14.43906933 10.61469706 19 17 C19 17.99 19 18.98 19 20 C14.91944849 19.49452628 13.33727705 17.49911118 10.75 14.4375 C10.04359375 13.61121094 9.3371875 12.78492188 8.609375 11.93359375 C8.07828125 11.29550781 7.5471875 10.65742188 7 10 C7.42925781 10.57234375 7.85851562 11.1446875 8.30078125 11.734375 C10.8671875 15.15625 13.43359375 18.578125 16 22 C15.375 23.875 15.375 23.875 14 26 C10.875 27.25 10.875 27.25 8 28 C7.19175781 27.11957031 6.38351562 26.23914063 5.55078125 25.33203125 C4.47141058 24.15880226 3.39198033 22.98562809 2.3125 21.8125 C1.78205078 21.23435547 1.25160156 20.65621094 0.70507812 20.06054688 C-2.4569327 16.6269523 -5.67475068 13.27589497 -9 10 C-7.68 7.69 -6.36 5.38 -5 3 C-2.525 3.99 -2.525 3.99 0 5 C0.09245003 3.53774984 0.09245003 3.53774984 -2 1 C-1.34 0.67 -0.68 0.34 0 0 Z " fill="#82A19B" transform="translate(353,134)"/>
<path d="M0 0 C0.33 0 0.66 0 1 0 C1.3125 2.6875 1.3125 2.6875 1 6 C-1.62367103 9.20670904 -4.15211415 11.4323428 -8 13 C-7.43179252 18.45479185 -6.05362055 22.91059256 -4 28 C-3.34 27.01 -2.68 26.02 -2 25 C-1.34 25 -0.68 25 0 25 C-1.875 30.75 -1.875 30.75 -3 33 C-1.02 32.505 -1.02 32.505 1 32 C1.8125 34.0625 1.8125 34.0625 2 37 C0.1487531 40.86852491 -1.98603618 43.48175183 -5.8125 45.4375 C-6.534375 45.623125 -7.25625 45.80875 -8 46 C-8 45.67 -8 45.34 -8 45 C-10.97 44.67 -13.94 44.34 -17 44 C-17 43.67 -17 43.34 -17 43 C-11.555 42.505 -11.555 42.505 -6 42 C-6.79664063 41.89042969 -7.59328125 41.78085938 -8.4140625 41.66796875 C-19.89000494 39.95076568 -19.89000494 39.95076568 -24 37 C-27.57130716 31.64303926 -27.35973227 26.81652916 -27.1875 20.625 C-27.17396484 19.69816406 -27.16042969 18.77132812 -27.14648438 17.81640625 C-27.11133881 15.54366002 -27.06214132 13.27214153 -27 11 C-27.66 11 -28.32 11 -29 11 C-29 10.01 -29 9.02 -29 8 C-27.02 7.34 -25.04 6.68 -23 6 C-22.87480326 12.38503362 -22.87480326 12.38503362 -23.48828125 15.3984375 C-24.6295928 21.20083059 -24.71189628 26.97109561 -22.75 32.5625 C-20.81866949 35.2525675 -20.0579159 35.87977338 -17 37 C-14.40904042 37.21638166 -11.9621658 37.32489064 -9.375 37.3125 C-8.694375 37.32861328 -8.01375 37.34472656 -7.3125 37.36132812 C-5.10415225 37.39949745 -5.10415225 37.39949745 -2 37 C-1.34 36.01 -0.68 35.02 0 34 C-1.65 34 -3.3 34 -5 34 C-5.34933594 33.08476562 -5.69867188 32.16953125 -6.05859375 31.2265625 C-6.74115234 29.44378906 -6.74115234 29.44378906 -7.4375 27.625 C-7.88996094 26.44164062 -8.34242188 25.25828125 -8.80859375 24.0390625 C-9.89271912 21.13963807 -9.89271912 21.13963807 -11 19 C-11.28686082 14.69708774 -10.61587139 11.93868652 -9 8 C-8.96125079 6.33378384 -8.9549714 4.66605828 -9 3 C-8.67 2.34 -8.34 1.68 -8 1 C-7.34 1 -6.68 1 -6 1 C-5.34 1.99 -4.68 2.98 -4 4 C-1.94074861 4.72382467 -1.94074861 4.72382467 0 5 C0 3.35 0 1.7 0 0 Z " fill="#605C58" transform="translate(313,194)"/>
<path d="M0 0 C6.88679213 1.2809132 12.08778219 7.4984437 16 13 C15.67 13.99 15.34 14.98 15 16 C14.67 15.67 14.34 15.34 14 15 C13.34 16.32 12.68 17.64 12 19 C11.01 19 10.02 19 9 19 C8.67 19.99 8.34 20.98 8 22 C6.296875 23.02734375 6.296875 23.02734375 4 23 C1.8697315 21.24163592 0.1050158 19.57575206 -1.75 17.5625 C-2.50990234 16.76875977 -2.50990234 16.76875977 -3.28515625 15.95898438 C-4.53495869 14.65022899 -5.76902618 13.32648041 -7 12 C-5.70706946 8.57261948 -4.63169906 6.52204494 -2 4 C-0.82425289 1.90010348 -0.82425289 1.90010348 0 0 Z " fill="#6B8A89" transform="translate(342,147)"/>
<path d="M0 0 C3.33435305 1.41856248 5.19565826 3.09931563 7.5 5.875 C9.89758153 8.71084912 12.31779415 11.42508238 15 14 C13.94124926 17.40312738 12.99097846 20.01353231 11 23 C6.82416955 21.35589284 3.97901916 18.31040006 0.875 15.1875 C0.33746094 14.66607422 -0.20007813 14.14464844 -0.75390625 13.60742188 C-3.75568521 10.60938578 -5.75371882 8.16196369 -7 4 C-6.01 3.01 -5.02 2.02 -4 1 C-3.01 1.33 -2.02 1.66 -1 2 C-0.67 1.34 -0.34 0.68 0 0 Z " fill="#728F8D" transform="translate(220,266)"/>
<path d="M0 0 C1.0621875 0.27714844 2.124375 0.55429687 3.21875 0.83984375 C4.64576737 1.20598636 6.07285448 1.57185722 7.5 1.9375 C8.19609375 2.11990234 8.8921875 2.30230469 9.609375 2.49023438 C18.44025708 4.73883861 26.85695258 5.15886158 35.9375 5.125 C36.97068359 5.12886719 38.00386719 5.13273437 39.06835938 5.13671875 C45.12819654 5.12904321 50.99134574 4.78945822 57 4 C56.67 5.32 56.34 6.64 56 8 C49.22273744 10.03563133 42.87084456 10.4213255 35.8125 10.4375 C34.68005859 10.44064209 33.54761719 10.44378418 32.38085938 10.44702148 C21.42738839 10.29437858 8.9669434 8.9834717 -1 4 C-0.67 2.68 -0.34 1.36 0 0 Z " fill="#456162" transform="translate(256,306)"/>
<path d="M0 0 C0.66 0 1.32 0 2 0 C2.98446235 4.33163436 2.96045478 6.13010598 1 10 C0.47772113 13.07319883 0.44710821 15.92898721 1 19 C3.18159145 21.75569447 4.87177494 23.43588747 8 25 C8 26.32 8 27.64 8 29 C9.32 29.66 10.64 30.32 12 31 C11.505 32.485 11.505 32.485 11 34 C5.375 34.25 5.375 34.25 2 32 C-0.11280345 31.36707617 -0.11280345 31.36707617 -2 31 C-3.0428233 27.61082427 -3 24.52596847 -3 21 C-3.33 20.34 -3.66 19.68 -4 19 C-4.45231534 13.74051932 -4.29795023 8.83778997 -2 4 C-1.01 3.67 -0.02 3.34 1 3 C0.67 2.01 0.34 1.02 0 0 Z " fill="#8C7A73" transform="translate(295,197)"/>
<path d="M0 0 C10.01988396 9.18772411 14.3874697 24.45252701 15.16015625 37.7578125 C15.78376153 59.82801689 8.1639899 77.62503884 -6.74609375 93.74609375 C-12.14840255 99.14840255 -18.85347421 104.16676196 -26 107 C-26.99 106.67 -27.98 106.34 -29 106 C-28.33355469 105.67128906 -27.66710937 105.34257812 -26.98046875 105.00390625 C-8.18892282 95.30589164 2.65622595 81.4802671 10.09765625 62.1484375 C15.71156036 44.02727726 12.32687774 24.72581023 3.78125 8.34033203 C3.43835938 7.6904834 3.09546875 7.04063477 2.7421875 6.37109375 C1 3 1 3 0 0 Z " fill="#2C484B" transform="translate(346,171)"/>
<path d="M0 0 C1.56234375 -0.01836914 1.56234375 -0.01836914 3.15625 -0.03710938 C9.13551629 -0.04843374 14.27382143 0.44624618 20 2.1875 C20 2.5175 20 2.8475 20 3.1875 C19.02764404 3.17702637 18.05528809 3.16655273 17.0534668 3.15576172 C13.39497662 3.11915769 9.73650212 3.09645485 6.07788086 3.07763672 C4.50395981 3.06767011 2.93005682 3.0540919 1.35620117 3.03662109 C-7.66707677 2.93907214 -16.16216737 3.11095401 -25 5.1875 C-26.3298291 5.45916992 -26.3298291 5.45916992 -27.68652344 5.73632812 C-41.88937069 8.72819743 -57.16111633 18.12584166 -67.19921875 28.44921875 C-69 30.1875 -69 30.1875 -71 30.1875 C-71.24492187 30.74953125 -71.48984375 31.3115625 -71.7421875 31.890625 C-73.22926539 34.60615854 -75.04062782 36.65141438 -77.125 38.9375 C-77.84945312 39.73671875 -78.57390625 40.5359375 -79.3203125 41.359375 C-79.87460938 41.96265625 -80.42890625 42.5659375 -81 43.1875 C-81 39.06134209 -79.29014263 37.70891645 -76.6875 34.5625 C-75.88699219 33.58023438 -75.08648437 32.59796875 -74.26171875 31.5859375 C-72 29.1875 -72 29.1875 -69 28.1875 C-69 27.5275 -69 26.8675 -69 26.1875 C-49.52102001 8.54301299 -26.11739103 0.01616175 0 0 Z " fill="#2C494C" transform="translate(292,114.8125)"/>
<path d="M0 0 C15.97188821 -0.62436644 30.16863763 3.31634885 43.52734375 12.1875 C45.4453125 14.4375 45.4453125 14.4375 46.52734375 16.1875 C43.08380008 14.91278471 40.20385176 13.40398515 37.15234375 11.375 C21.59835568 2.1199223 3.70421665 0.51187116 -13.97265625 4.1875 C-30.61811904 9.44137763 -42.29427277 18.97952175 -53.47265625 32.1875 C-53.80265625 31.5275 -54.13265625 30.8675 -54.47265625 30.1875 C-53.19869735 28.14916576 -51.86203702 26.14897874 -50.47265625 24.1875 C-49.81265625 24.1875 -49.15265625 24.1875 -48.47265625 24.1875 C-48.20066406 23.58421875 -47.92867187 22.9809375 -47.6484375 22.359375 C-42.11153139 12.13173447 -27.38416151 5.97591091 -16.70678711 2.63964844 C-10.95726211 0.94856781 -5.94260209 0.32086041 0 0 Z " fill="#2C484B" transform="translate(287.47265625,142.8125)"/>
<path d="M0 0 C0.70125 0.144375 1.4025 0.28875 2.125 0.4375 C3.548125 0.7159375 3.548125 0.7159375 5 1 C5.94875 1.20625 6.8975 1.4125 7.875 1.625 C11.44099478 2.05291937 14.46024212 1.52440857 18 1 C19.3380151 1.3140135 20.67117158 1.64913831 22 2 C23.58567839 2.1421701 25.17518632 2.24504041 26.765625 2.31640625 C27.65507812 2.35830078 28.54453125 2.40019531 29.4609375 2.44335938 C30.38132812 2.48267578 31.30171875 2.52199219 32.25 2.5625 C33.18585938 2.60568359 34.12171875 2.64886719 35.0859375 2.69335938 C37.39048641 2.7991805 39.69513839 2.90126557 42 3 C42 3.66 42 4.32 42 5 C42.83144531 4.77183594 43.66289062 4.54367187 44.51953125 4.30859375 C46.14955078 3.87740234 46.14955078 3.87740234 47.8125 3.4375 C48.89144531 3.14746094 49.97039062 2.85742188 51.08203125 2.55859375 C54 2 54 2 57 3 C42.6908467 10.49527078 24.71942035 9.27698679 9.59375 5.16796875 C6.17905613 4.05819324 3.15636803 2.69995747 0 1 C0 0.67 0 0.34 0 0 Z " fill="#395256" transform="translate(260,276)"/>
<path d="M0 0 C0.66 0 1.32 0 2 0 C2.30457987 3.11779032 2.19656731 4.67167368 0.56640625 7.39453125 C-12.51919333 23.18397791 -26.01711461 31.32276201 -46 35 C-42.72495016 31.08836759 -39.14841463 29.73549836 -34.4375 28.1875 C-27.27242708 25.66922829 -21.17218959 22.48205795 -15 18 C-13.948125 17.2575 -12.89625 16.515 -11.8125 15.75 C-7.20032736 11.24032009 -2.8977089 5.7954178 0 0 Z " fill="#465F62" transform="translate(346,247)"/>
<path d="M0 0 C0.33 0 0.66 0 1 0 C1.19916016 1.24716797 1.19916016 1.24716797 1.40234375 2.51953125 C1.57894531 3.60621094 1.75554687 4.69289062 1.9375 5.8125 C2.11152344 6.89144531 2.28554688 7.97039062 2.46484375 9.08203125 C2.93871921 12.04933356 2.93871921 12.04933356 4 15 C9.80588169 18.09470687 16.54530999 18.60921501 23 19 C22.67 19.66 22.34 20.32 22 21 C7.29871439 22.03368414 7.29871439 22.03368414 2.0625 18 C0.22265625 16.3125 0.22265625 16.3125 -1 15 C-1 15.99 -1 16.98 -1 18 C0.32 18.66 1.64 19.32 3 20 C3 20.33 3 20.66 3 21 C-3.63535803 21.72123457 -8.46062086 19.63676591 -14 16 C-16.1875 13.375 -16.1875 13.375 -17 11 C-16.67 10.01 -16.34 9.02 -16 8 C-14.29115995 9.62339805 -12.62553283 11.29319053 -11 13 C-11 13.66 -11 14.32 -11 15 C-8.36 15.66 -5.72 16.32 -3 17 C-3.04125 15.88625 -3.0825 14.7725 -3.125 13.625 C-3 10 -3 10 -1 8 C-0.54188325 6.02764667 -0.54188325 6.02764667 -0.375 3.875 C-0.25125 2.59625 -0.1275 1.3175 0 0 Z " fill="#9B9998" transform="translate(285,216)"/>
<path d="M0 0 C4.00510555 3.6498701 6.65335336 7.37533136 9.0625 12.25 C9.40611572 12.9409375 9.74973145 13.631875 10.10375977 14.34375 C20.13482734 35.51489522 20.05783546 59.39169584 12.6875 81.3125 C10.44376863 87.32542645 7.56954906 92.67634264 4 98 C3.67 97.34 3.34 96.68 3 96 C4.01450114 93.58608404 5.08528311 91.27744719 6.25 88.9375 C15.74199112 69.21221173 19.08146099 46.10653076 11.75830078 24.98730469 C8.68898302 16.94343908 5.24452274 8.86199237 0 2 C0 1.34 0 0.68 0 0 Z " fill="#2F4C4F" transform="translate(360,162)"/>
<path d="M0 0 C1.32 0.66 2.64 1.32 4 2 C4 4.31 4 6.62 4 9 C4.99 9 5.98 9 7 9 C8.578125 10.93359375 8.578125 10.93359375 10.25 13.4375 C12.61242784 16.77388204 12.61242784 16.77388204 16.01171875 18.8203125 C18.12060869 19.13280242 18.12060869 19.13280242 21 19 C20.375 20.875 20.375 20.875 19 23 C17.02094497 23.72648856 15.02061203 24.39869186 13 25 C12.19175781 24.11957031 11.38351562 23.23914063 10.55078125 22.33203125 C9.47141058 21.15880226 8.39198033 19.98562809 7.3125 18.8125 C6.78205078 18.23435547 6.25160156 17.65621094 5.70507812 17.06054688 C2.5430673 13.6269523 -0.67475068 10.27589497 -4 7 C-2.68 4.69 -1.36 2.38 0 0 Z " fill="#708E8C" transform="translate(348,137)"/>
<path d="M0 0 C0.66 0.99 1.32 1.98 2 3 C1.34 3 0.68 3 0 3 C0 3.66 0 4.32 0 5 C0.66 5.33 1.32 5.66 2 6 C1.34 6 0.68 6 0 6 C0.226875 6.598125 0.45375 7.19625 0.6875 7.8125 C0.8421875 8.8953125 0.8421875 8.8953125 1 10 C-0.3125 11.625 -0.3125 11.625 -2 13 C-4.27216848 14.83737827 -4.27216848 14.83737827 -4.1953125 17.6015625 C-4.17210937 18.59929687 -4.14890625 19.59703125 -4.125 20.625 C-4.09792969 22.12933594 -4.09792969 22.12933594 -4.0703125 23.6640625 C-4.04710937 24.43492187 -4.02390625 25.20578125 -4 26 C-7.875 24.25 -7.875 24.25 -9 22 C-9.4688017 16.54881745 -8.91494106 12.1464041 -7 7 C-7 5.68 -7 4.36 -7 3 C-7.33 3.99 -7.66 4.98 -8 6 C-10.0625 6.6875 -10.0625 6.6875 -12 7 C-11.64393309 4.41851492 -11.16671807 3.17954253 -9.375 1.25 C-6.08619811 -0.48094836 -3.65708457 -0.40634273 0 0 Z " fill="#BD9D9F" transform="translate(304,194)"/>
<path d="M0 0 C0 0.33 0 0.66 0 1 C-1.01030273 1.01401855 -1.01030273 1.01401855 -2.04101562 1.02832031 C-15.52964991 1.26278533 -28.12578305 1.72886073 -41 6 C-41.93714844 6.31066406 -42.87429688 6.62132812 -43.83984375 6.94140625 C-56.61872711 11.64734327 -71.53527262 20.89212104 -78.6875 32.8125 C-80.17699809 35.29499682 -81.33143853 35.98778703 -84 37 C-76.57152443 20.57311331 -59.41152797 10.93876484 -43.609375 3.94140625 C-30.42982332 -0.91289427 -13.75921781 -3.26222373 0 0 Z " fill="#2E4A4D" transform="translate(304,127)"/>
<path d="M0 0 C3.37827453 0.57980894 6.20377561 1.45039806 9.3125 2.875 C28.50898523 10.55359409 51.64003334 10.302756 71.390625 4.97265625 C74.59336326 4.10958068 77.72177412 3.48358922 81 3 C77.57442681 6.05076492 73.92023436 7.06006003 69.5625 8.125 C68.57926758 8.37830078 68.57926758 8.37830078 67.57617188 8.63671875 C51.00325332 12.85890663 33.54587611 12.07680842 17 8 C15.63875 7.68095703 15.63875 7.68095703 14.25 7.35546875 C12.49304829 6.93148214 10.74453658 6.47247866 9 6 C8.67 6.66 8.34 7.32 8 8 C6.35 7.67 4.7 7.34 3 7 C3.99 6.01 4.98 5.02 6 4 C4.02 3.01 2.04 2.02 0 1 C0 0.67 0 0.34 0 0 Z " fill="#2D4A4C" transform="translate(247,301)"/>
<path d="M0 0 C0.33 0.66 0.66 1.32 1 2 C0.00705953 4.09687428 -1.07249579 6.15290468 -2.1875 8.1875 C-12.29294753 27.36219686 -13.3515781 49.25728328 -8 70 C-5.5492459 77.79548378 -2.2101232 84.83863511 1.9609375 91.85546875 C2.30382812 92.56316406 2.64671875 93.27085937 3 94 C2.505 94.99 2.505 94.99 2 96 C-9.17253191 81.02405298 -13.55800225 64.43089396 -13.375 45.9375 C-13.38660156 44.76123047 -13.39820313 43.58496094 -13.41015625 42.37304688 C-13.3610774 27.57577246 -9.49042248 11.6596619 0 0 Z " fill="#2E4B4E" transform="translate(217,167)"/>
<path d="M0 0 C0.66 0.33 1.32 0.66 2 1 C0.58163643 6.1576857 -1.67391575 10.79975258 -5 15 C-5.66 15 -6.32 15 -7 15 C-7.21011719 15.69738281 -7.42023438 16.39476562 -7.63671875 17.11328125 C-9.41397525 20.87658369 -11.86250985 23.30171762 -14.8125 26.1875 C-15.59463867 26.98704102 -15.59463867 26.98704102 -16.39257812 27.80273438 C-19.38995136 30.77765537 -21.86317806 32.75360078 -26 34 C-25.92093104 31.31165521 -25.54805954 29.55116469 -23.62109375 27.61328125 C-22.4055656 26.62073589 -21.18512345 25.63419085 -19.9609375 24.65234375 C-13.14072861 18.90543466 -6.78643696 10.79578888 -2.92578125 2.765625 C-2 1 -2 1 0 0 Z " fill="#466163" transform="translate(378,260)"/>
<path d="M0 0 C7.79670889 6.90565645 11.29448651 16.47336844 15 26 C15.30035156 26.76183594 15.60070312 27.52367187 15.91015625 28.30859375 C22.23703723 45.63598135 22.08785966 67.33252404 17 85 C16.01 85.99 16.01 85.99 15 87 C15.14204741 85.41632253 15.28880153 83.83306682 15.4375 82.25 C15.51871094 81.36828125 15.59992188 80.4865625 15.68359375 79.578125 C16 77 16 77 16.50488281 75.20654297 C21.28034451 53.92418459 16.17312103 28.30083971 5.05859375 9.76171875 C3.83819713 7.86085856 2.59488883 5.9743395 1.3203125 4.109375 C0 2 0 2 0 0 Z " fill="#304B4E" transform="translate(369,155)"/>
<path d="M0 0 C-0.60585937 0.47308594 -1.21171875 0.94617188 -1.8359375 1.43359375 C-10.96081997 8.63523176 -19.59569557 16.00205389 -27 25 C-27.99 24.67 -28.98 24.34 -30 24 C-29.1875 22.0625 -29.1875 22.0625 -28 20 C-27.01 19.67 -26.02 19.34 -25 19 C-25.061875 18.236875 -25.12375 17.47375 -25.1875 16.6875 C-24.96487909 13.49660032 -24.31697562 13.03893855 -22 11 C-21.67 10.01 -21.34 9.02 -21 8 C-20.4225 8.20625 -19.845 8.4125 -19.25 8.625 C-16.39351159 9.1010814 -15.35409582 8.64786707 -13 7 C-12.3162955 5.67532254 -11.65035814 4.34136367 -11 3 C-7.37037869 -0.26665918 -4.71635461 -1.5721182 0 0 Z " fill="#27393C" transform="translate(235,128)"/>
<path d="M0 0 C1.3921875 1.2065625 1.3921875 1.2065625 2.8125 2.4375 C3.45574219 2.98277344 4.09898437 3.52804687 4.76171875 4.08984375 C6.3424935 5.43888189 7.90610926 6.8081515 9.45703125 8.19140625 C16.14859555 13.98161782 22.86774073 17.59761443 31 21 C32.33986832 21.65343332 33.6763724 22.31426522 35 23 C34.34 23.66 33.68 24.32 33 25 C23.37344433 24.75933611 15.07225992 17.85145315 8 12 C7.071875 11.29875 6.14375 10.5975 5.1875 9.875 C2.72690297 7.76591683 0.79927947 5.6989192 -1 3 C-0.67 2.01 -0.34 1.02 0 0 Z " fill="#485F63" transform="translate(238,254)"/>
<path d="M0 0 C0.33 0.66 0.66 1.32 1 2 C0.15750698 3.84814489 -0.77642124 5.65492365 -1.75 7.4375 C-5.9344954 15.54435303 -8.44728008 23.85499768 -9 33 C-9.05285156 33.86882812 -9.10570312 34.73765625 -9.16015625 35.6328125 C-9.60232656 50.05140947 -6.02315941 63.56192432 1.75 75.7421875 C2.1625 76.48726563 2.575 77.23234375 3 78 C2.505 78.99 2.505 78.99 2 80 C-1.7386047 75.86151058 -4.19912983 71.9905811 -6.1875 66.75 C-6.67605469 65.52796875 -7.16460937 64.3059375 -7.66796875 63.046875 C-13.54097458 46.30473715 -13.52247999 26.1254246 -6 10 C-2.13903743 2.13903743 -2.13903743 2.13903743 0 0 Z " fill="#2D494D" transform="translate(232,175)"/>
<path d="M0 0 C11.70355631 5.30357236 18.04762926 18.44301723 22.93359375 29.60546875 C24.07880851 33.25085933 24.19783823 36.20247101 24 40 C20.79291989 38.39645994 20.51571117 34.98315295 19.4375 31.75 C15.64205576 21.04086772 9.84399017 11.92013652 1.21484375 4.3671875 C0 3 0 3 0 0 Z " fill="#486366" transform="translate(333,160)"/>
<path d="M0 0 C3.42062263 1.43590972 5.23874919 3.19810023 7.5625 6.0625 C10.18282506 9.33584139 10.18282506 9.33584139 14 11 C14.33 10.34 14.66 9.68 15 9 C16.00842453 10.43160268 17.00647891 11.87051453 18 13.3125 C18.556875 14.11300781 19.11375 14.91351563 19.6875 15.73828125 C21 18 21 18 21 21 C21.66 21 22.32 21 23 21 C27.59225513 30.22551253 27.59225513 30.22551253 27 36 C26.01 36.495 26.01 36.495 25 37 C24.56429688 36.02160156 24.12859375 35.04320312 23.6796875 34.03515625 C18.84835018 22.9161291 18.84835018 22.9161291 12 13 C11.34 13 10.68 13 10 13 C8.4169795 11.26303438 6.90646276 9.45943503 5.4375 7.625 C4.63183594 6.62726563 3.82617188 5.62953125 2.99609375 4.6015625 C1 2 1 2 0 0 Z " fill="#486366" transform="translate(358,143)"/>
<path d="M0 0 C0.66163651 0.02644089 1.32327301 0.05288177 2.00495911 0.0801239 C4.11491198 0.16778748 6.22312349 0.27696236 8.33203125 0.38671875 C9.76360979 0.44998847 11.19525112 0.51185419 12.62695312 0.57226562 C16.13368704 0.72330778 19.63917945 0.89365439 23.14453125 1.07421875 C23.63953125 2.55921875 23.63953125 2.55921875 24.14453125 4.07421875 C25.13453125 3.74421875 26.12453125 3.41421875 27.14453125 3.07421875 C29.4775295 3.03467641 31.81161314 3.03020143 34.14453125 3.07421875 C30.77959954 5.31750656 29.62879896 5.33076245 25.69140625 5.33984375 C24.60327637 5.34371094 23.51514648 5.34757812 22.39404297 5.3515625 C20.66178467 5.33802734 20.66178467 5.33802734 18.89453125 5.32421875 C17.7255127 5.32035156 16.55649414 5.31648438 15.35205078 5.3125 C6.80155793 5.22729094 -1.44525351 4.62858196 -9.85546875 3.07421875 C-7.13659437 -0.72006367 -4.41218469 -0.20478494 0 0 Z " fill="#26383A" transform="translate(278.85546875,314.92578125)"/>
<path d="M0 0 C0.33 0 0.66 0 1 0 C1.3125 2.6875 1.3125 2.6875 1 6 C-1.62367103 9.20670904 -4.15211415 11.4323428 -8 13 C-7.43179252 18.45479185 -6.05362055 22.91059256 -4 28 C-3.34 27.01 -2.68 26.02 -2 25 C-1.34 25 -0.68 25 0 25 C-1.11756266 28.86848614 -2.02873292 31.28922757 -5 34 C-5.34933594 33.08476562 -5.69867188 32.16953125 -6.05859375 31.2265625 C-6.51363281 30.03804687 -6.96867187 28.84953125 -7.4375 27.625 C-7.88996094 26.44164062 -8.34242188 25.25828125 -8.80859375 24.0390625 C-9.89271912 21.13963807 -9.89271912 21.13963807 -11 19 C-11.28686082 14.69708774 -10.61587139 11.93868652 -9 8 C-8.96125079 6.33378384 -8.9549714 4.66605828 -9 3 C-8.67 2.34 -8.34 1.68 -8 1 C-7.34 1 -6.68 1 -6 1 C-5.34 1.99 -4.68 2.98 -4 4 C-1.94074861 4.72382467 -1.94074861 4.72382467 0 5 C0 3.35 0 1.7 0 0 Z " fill="#625851" transform="translate(313,194)"/>
<path d="M0 0 C3.70217039 0.17726783 5.5018779 1.22758081 7.97265625 3.8359375 C9.01397417 5.00560083 10.04365673 6.18570874 11.0625 7.375 C12.09192545 8.55222061 13.12440178 9.72678149 14.16015625 10.8984375 C14.64371582 11.4459668 15.12727539 11.99349609 15.62548828 12.55761719 C17.25909976 14.27189367 19.10399316 15.59049852 21 17 C21 17.66 21 18.32 21 19 C22.32 19.66 23.64 20.32 25 21 C24.67 21.99 24.34 22.98 24 24 C14.10467911 19.4564531 5.26053314 9.32624488 0 0 Z " fill="#465B5D" transform="translate(202,276)"/>
<path d="M0 0 C11.59830477 -0.74295191 11.59830477 -0.74295191 17 4 C17.78375 4.598125 18.5675 5.19625 19.375 5.8125 C21.65861489 8.88659697 21.28651186 11.27534576 21 15 C18.525 14.505 18.525 14.505 16 14 C15.67 13.01 15.34 12.02 15 11 C9.17932539 10.35590896 5.15762367 10.34874967 0.375 14 C-0.76974668 14.97733313 -1.90247489 15.96992057 -3 17 C-3.66 16.67 -4.32 16.34 -5 16 C2.62212131 8.25689264 2.62212131 8.25689264 7.6875 7.3125 C11.20728648 8.04302172 13.90439332 9.18793755 17 11 C17 10.01 17 9.02 17 8 C17 7.34 17 6.68 17 6 C15.7934375 5.814375 15.7934375 5.814375 14.5625 5.625 C13.716875 5.41875 12.87125 5.2125 12 5 C11.67 4.34 11.34 3.68 11 3 C8.42048126 2.30906104 8.42048126 2.30906104 5.4375 1.875 C4.42558594 1.70742187 3.41367187 1.53984375 2.37109375 1.3671875 C1.58863281 1.24601563 0.80617188 1.12484375 0 1 C0 0.67 0 0.34 0 0 Z " fill="#55534F" transform="translate(292,184)"/>
<path d="M0 0 C3.9468175 0.56253491 5.93859683 2.45475926 8.8125 5.125 C9.68261719 5.93066406 10.55273438 6.73632812 11.44921875 7.56640625 C14.68897569 10.65732291 17.88059284 13.78763037 21 17 C20.67 17.66 20.34 18.32 20 19 C19.01 19.33 18.02 19.66 17 20 C16.55269531 19.46890625 16.10539062 18.9378125 15.64453125 18.390625 C12.33285362 14.52111681 9.14442456 11.01412695 5 8 C4.67 8.99 4.34 9.98 4 11 C3.01 9.68 2.02 8.36 1 7 C1.66 6.67 2.32 6.34 3 6 C2.67 4.68 2.34 3.36 2 2 C1.34 2 0.68 2 0 2 C0 1.34 0 0.68 0 0 Z " fill="#3B5355" transform="translate(354,127)"/>
<path d="M0 0 C2.981701 1.22775924 4.13718467 3.36099826 6.125 5.875 C7.671875 6.8959375 7.671875 6.8959375 9.25 7.9375 C12.04845135 9.82341287 13.01589646 10.76951008 14.125 13.875 C13.135 15.36 13.135 15.36 12.125 16.875 C7.83857676 15.21036962 5.03882783 12.08424163 1.875 8.875 C1.32070312 8.3284375 0.76640625 7.781875 0.1953125 7.21875 C-3.875 3.1283867 -3.875 3.1283867 -3.875 0.875 C-1.875 -0.125 -1.875 -0.125 0 0 Z " fill="#87A39F" transform="translate(218.875,272.125)"/>
<path d="M0 0 C-2 3 -2 3 -5 4 C-5 4.66 -5 5.32 -5 6 C-6.65 6 -8.3 6 -10 6 C-10 5.34 -10 4.68 -10 4 C-12.76396068 5.03281758 -13.84426644 5.73882644 -15.37890625 8.3125 C-15.76949219 9.199375 -16.16007812 10.08625 -16.5625 11 C-18.68638239 15.7909216 -18.68638239 15.7909216 -22 18 C-21.67 19.32 -21.34 20.64 -21 22 C-22.98 21.67 -24.96 21.34 -27 21 C-26.01 19.515 -26.01 19.515 -25 18 C-25 17.01 -25 16.02 -25 15 C-24.2575 14.608125 -23.515 14.21625 -22.75 13.8125 C-19.81852532 11.88039169 -19.41247503 11.13839247 -18.0625 8.0625 C-14.23029391 -0.16235338 -8.27310797 -0.58860057 0 0 Z " fill="#67665D" transform="translate(301,183)"/>
<path d="M0 0 C7.47392234 2.76454762 14.43906933 10.61469706 19 17 C19 17.99 19 18.98 19 20 C14.97329771 19.48767404 13.51121267 17.62794515 11 14.5625 C8.45182978 11.46189444 6.56554055 9.74653511 3 8 C1.515625 6.2734375 1.515625 6.2734375 0.25 4.375 C-0.17796875 3.74335938 -0.6059375 3.11171875 -1.046875 2.4609375 C-1.36140625 1.97882813 -1.6759375 1.49671875 -2 1 C-1.34 0.67 -0.68 0.34 0 0 Z " fill="#799794" transform="translate(353,134)"/>
<path d="M0 0 C2.93230193 1.32120828 4.98664899 2.74638197 7.234375 5.0390625 C8.09482422 5.90917969 8.09482422 5.90917969 8.97265625 6.796875 C9.55917969 7.40015625 10.14570313 8.0034375 10.75 8.625 C11.35199219 9.23601562 11.95398438 9.84703125 12.57421875 10.4765625 C14.05405305 11.97988624 15.52764676 13.48934856 17 15 C16.67 15.99 16.34 16.98 16 18 C9.15315092 14.88918216 3.30071588 9.1042419 -1 3 C-0.67 2.01 -0.34 1.02 0 0 Z " fill="#7D9996" transform="translate(212,275)"/>
<path d="M0 0 C3.85645121 -0.22036864 6.49223216 0.39644899 10 2 C8 5 8 5 5.35546875 5.73046875 C3.78732422 5.95669922 3.78732422 5.95669922 2.1875 6.1875 C0.63095703 6.42533203 0.63095703 6.42533203 -0.95703125 6.66796875 C-3.67227313 6.96424033 -6.27243098 7.06554232 -9 7 C-9.33 5.68 -9.66 4.36 -10 3 C-6.5980513 0.90649311 -3.94727588 0.82057837 0 1 C0 0.67 0 0.34 0 0 Z " fill="#233436" transform="translate(268,108)"/>
<path d="M0 0 C0.66 0.33 1.32 0.66 2 1 C-1.85421412 9.6309795 -1.85421412 9.6309795 -6 12 C-10.6875 8.484375 -10.6875 8.484375 -12 7 C-12 5.68 -12 4.36 -12 3 C-10.1875 2.375 -10.1875 2.375 -8 2 C-7.01 2.66 -6.02 3.32 -5 4 C-4.67 3.34 -4.34 2.68 -4 2 C-2.68 2 -1.36 2 0 2 C0 1.34 0 0.68 0 0 Z " fill="#668382" transform="translate(245,270)"/>
<path d="M0 0 C0.66 0 1.32 0 2 0 C3.25047535 5.50209152 3.25047535 5.50209152 2.03515625 7.91796875 C0.83898338 10.32385608 0.76283301 11.89402803 0.8125 14.5625 C0.81894531 15.32691406 0.82539063 16.09132812 0.83203125 16.87890625 C0.92946495 19.18897716 0.92946495 19.18897716 2 22 C0.68 22.33 -0.64 22.66 -2 23 C-5.0470169 17.65562909 -4.54694271 12.35606088 -3.1875 6.5 C-2.795625 5.675 -2.40375 4.85 -2 4 C-1.01 3.67 -0.02 3.34 1 3 C0.67 2.01 0.34 1.02 0 0 Z " fill="#B46974" transform="translate(295,197)"/>
<path d="M0 0 C3.6875 0.3125 3.6875 0.3125 6.125 2.3125 C6.8984375 3.3025 6.8984375 3.3025 7.6875 4.3125 C7.3575 4.9725 7.0275 5.6325 6.6875 6.3125 C7.3475 6.3125 8.0075 6.3125 8.6875 6.3125 C9.3475 7.9625 10.0075 9.6125 10.6875 11.3125 C6.79445527 10.74648995 4.19207513 9.6327 0.9375 7.4375 C0.15890625 6.92445313 -0.6196875 6.41140625 -1.421875 5.8828125 C-3.3125 4.3125 -3.3125 4.3125 -4.3125 1.3125 C-3.3125 0.3125 -3.3125 0.3125 0 0 Z " fill="#273B3D" transform="translate(347.3125,122.6875)"/>
<path d="M0 0 C0 3.16785869 -0.55555175 4.28103859 -2 7 C-2.33 7.99 -2.66 8.98 -3 10 C-4.66666667 11.66666667 -6.33333333 13.33333333 -8 15 C-9.938727 17.71421779 -11.67565993 20.24996359 -13 23.3125 C-14 25 -14 25 -16.125 25.75 C-17.053125 25.87375 -17.053125 25.87375 -18 26 C-17.34 24.02 -16.68 22.04 -16 20 C-15.34 20 -14.68 20 -14 20 C-13.8453125 19.1646875 -13.8453125 19.1646875 -13.6875 18.3125 C-12.85821592 15.5230899 -11.65700944 13.3860936 -10 11 C-9.34 11 -8.68 11 -8 11 C-8 10.01 -8 9.02 -8 8 C-5.6875 5.5 -5.6875 5.5 -3 3 C-2.401875 2.401875 -1.80375 1.80375 -1.1875 1.1875 C-0.795625 0.795625 -0.40375 0.40375 0 0 Z " fill="#465657" transform="translate(213,137)"/>
<path d="M0 0 C3 0 3 0 4.6875 1.5 C5.120625 1.995 5.55375 2.49 6 3 C5.3125 5.375 5.3125 5.375 4 8 C1.5625 9.25 1.5625 9.25 -1 10 C-1.99 10.33 -2.98 10.66 -4 11 C-4 11.66 -4 12.32 -4 13 C-5.32 12.34 -6.64 11.68 -8 11 C-7.67 10.01 -7.34 9.02 -7 8 C-6.34 8 -5.68 8 -5 8 C-4.67 6.68 -4.34 5.36 -4 4 C-3.01 4.33 -2.02 4.66 -1 5 C-0.67 3.35 -0.34 1.7 0 0 Z " fill="#547374" transform="translate(355,161)"/>
<path d="M0 0 C2.04119788 1.61594832 4.04072937 3.2856382 6 5 C6 5.66 6 6.32 6 7 C8.64 7.66 11.28 8.32 14 9 C14 7.02 14 5.04 14 3 C14.66 3.33 15.32 3.66 16 4 C16 4.66 16 5.32 16 6 C16.66 6.33 17.32 6.66 18 7 C17.34 7 16.68 7 16 7 C16 7.99 16 8.98 16 10 C17.32 10.66 18.64 11.32 20 12 C20 12.33 20 12.66 20 13 C13.36764833 13.72090779 8.53503418 11.64042571 3 8 C0.55114464 4.97494338 0 3.86725676 0 0 Z " fill="#7B7777" transform="translate(268,224)"/>
<path d="M0 0 C-0.45163849 2.52917554 -0.92819512 3.91096195 -2.5625 5.9375 C-4.35205134 8.50511714 -4.40384901 9.93074752 -4 13 C-3.34 13.66 -2.68 14.32 -2 15 C-2.66 15.99 -3.32 16.98 -4 18 C-4.84511824 16.27656245 -5.67563354 14.54595947 -6.5 12.8125 C-6.9640625 11.84957031 -7.428125 10.88664063 -7.90625 9.89453125 C-9.01011794 6.9732236 -9.40627059 5.08444909 -9 2 C-5.85636787 -0.61969344 -3.87356388 -1.57811862 0 0 Z " fill="#D6CFBD" transform="translate(313,205)"/>
<path d="M0 0 C0.66 0 1.32 0 2 0 C3.89623312 7.22938876 4.19266838 14.32110158 4.1875 21.75 C4.18814453 22.64871826 4.18878906 23.54743652 4.18945312 24.47338867 C4.14918299 29.41426005 3.83182577 34.1288283 3 39 C2.67 39 2.34 39 2 39 C1.17049145 27.8590621 0.93267187 17.13305344 2 6 C1.34 6 0.68 6 0 6 C0 4.02 0 2.04 0 0 Z " fill="#445C5B" transform="translate(395,192)"/>
<path d="M0 0 C3.63 0.33 7.26 0.66 11 1 C10.01 2.32 9.02 3.64 8 5 C7.34 5 6.68 5 6 5 C5.67 4.34 5.34 3.68 5 3 C4.01 2.67 3.02 2.34 2 2 C2.33 2.99 2.66 3.98 3 5 C3.99 5.33 4.98 5.66 6 6 C5.21681311 9.91593446 3.60820142 13.36406635 2 17 C1.01 17 0.02 17 -1 17 C-0.51871909 14.04356012 -0.02491857 11.11213356 0.625 8.1875 C0.74875 7.465625 0.8725 6.74375 1 6 C0.67 5.67 0.34 5.34 0 5 C0 3.35 0 1.7 0 0 Z " fill="#645F56" transform="translate(266,199)"/>
<path d="M0 0 C2 2 2 2 2.1953125 5.9140625 C2.18200376 7.48449351 2.15813602 9.05486221 2.125 10.625 C2.11597656 11.42679688 2.10695313 12.22859375 2.09765625 13.0546875 C2.07406223 15.03658523 2.03819065 17.01832981 2 19 C-1.875 17.25 -1.875 17.25 -3 15 C-3.60014069 9.22941644 -3.10359396 5.04334018 0 0 Z " fill="#D68089" transform="translate(298,201)"/>
<path d="M0 0 C-0.33 0.66 -0.66 1.32 -1 2 C-1.99 2 -2.98 2 -4 2 C-3.01 2.99 -2.02 3.98 -1 5 C-1.99 5.495 -1.99 5.495 -3 6 C-4.83984375 5.328125 -4.83984375 5.328125 -6.9375 4.25 C-7.62714844 3.90453125 -8.31679687 3.5590625 -9.02734375 3.203125 C-11.00647591 1.99605034 -12.43898435 0.70292617 -14 -1 C-13 -3 -13 -3 -10.9375 -3.875 C-6.62917444 -4.058333 -3.66171624 -2.11707167 0 0 Z " fill="#324446" transform="translate(244,304)"/>
<path d="M0 0 C2.66046042 2.66046042 2.68132195 4.27190334 3 8 C2.44140625 11.6484375 2.44140625 11.6484375 1.5625 15.375 C1.27503906 16.62023437 0.98757813 17.86546875 0.69140625 19.1484375 C0.46324219 20.08945313 0.23507812 21.03046875 0 22 C-0.33 22 -0.66 22 -1 22 C-1.41798183 19.27259339 -1.809837 16.54552869 -2.1875 13.8125 C-2.30802734 13.04357422 -2.42855469 12.27464844 -2.55273438 11.48242188 C-3.0716515 7.58217384 -3.2800009 5.58943585 -1.55078125 1.94921875 C-1.03902344 1.30597656 -0.52726562 0.66273438 0 0 Z " fill="#283A3F" transform="translate(393,184)"/>
<path d="M0 0 C0 3 0 3 -1.765625 4.98046875 C-9.78125734 12.1012742 -18.62210458 19.68790572 -29 23 C-29.99 22.67 -30.98 22.34 -32 22 C-30.29457031 21.12601562 -30.29457031 21.12601562 -28.5546875 20.234375 C-17.8332859 14.59288113 -8.8413339 8.27275937 0 0 Z " fill="#2B474A" transform="translate(360,281)"/>
<path d="M0 0 C7.50769231 -0.36923077 7.50769231 -0.36923077 10 1.5 C10.495 2.2425 10.495 2.2425 11 3 C10.34 4.65 9.68 6.3 9 8 C5.66666667 6.66666667 2.33333333 5.33333333 -1 4 C-0.67 2.68 -0.34 1.36 0 0 Z " fill="#26373A" transform="translate(323,112)"/>
<path d="M0 0 C1.32 0.66 2.64 1.32 4 2 C3.70703125 3.953125 3.4140625 5.90625 3.12109375 7.859375 C2.87452051 10.33941547 2.87452051 10.33941547 4 14 C1.36 12.02 -1.28 10.04 -4 8 C-2.68 5.36 -1.36 2.72 0 0 Z " fill="#698787" transform="translate(348,137)"/>
<path d="M0 0 C2.39522703 1.93460644 4.70990794 3.94210415 7 6 C7.61746094 6.54140625 8.23492187 7.0828125 8.87109375 7.640625 C10.62944498 9.37867194 11.90644485 10.77718177 13 13 C12.90216389 16.22344248 12.13184597 18.99310799 11 22 C9.68 22 8.36 22 7 22 C7.78710062 18.58923066 8.88276042 15.31538575 10 12 C9.278125 11.30132812 8.55625 10.60265625 7.8125 9.8828125 C6.884375 8.97273438 5.95625 8.06265625 5 7.125 C4.071875 6.22007812 3.14375 5.31515625 2.1875 4.3828125 C0 2 0 2 0 0 Z " fill="#526F6E" transform="translate(224,268)"/>
<path d="M0 0 C0.16335585 5.23419357 -0.39447963 9.86306192 -1.5 14.9375 C-1.64308594 15.62134766 -1.78617187 16.30519531 -1.93359375 17.00976562 C-2.28283771 18.67449514 -2.64052946 20.33744875 -3 22 C-3.33 22 -3.66 22 -4 22 C-4 16.39 -4 10.78 -4 5 C-4.66 5 -5.32 5 -6 5 C-6 4.01 -6 3.02 -6 2 C-1.125 0 -1.125 0 0 0 Z " fill="#605A58" transform="translate(290,200)"/>
<path d="M0 0 C2.63247289 0.35573958 4.53051446 0.65223294 6.6875 2.25 C8 4 8 4 8.8125 6.25 C10.48649286 10.12661505 13.16765063 12.90935462 16 16 C11.82812274 15.50583686 10.12702321 13.32634126 7.4375 10.25 C6.67308594 9.38890625 5.90867188 8.5278125 5.12109375 7.640625 C3.15113838 5.18815754 1.54090258 2.73719436 0 0 Z " fill="#384F50" transform="translate(202,276)"/>
<path d="M0 0 C4.55015893 1.51671964 6.50057264 5.16891053 9 9 C7.02 9.99 7.02 9.99 5 11 C3.515 8.03 3.515 8.03 2 5 C-2.455 5.495 -2.455 5.495 -7 6 C-6.34 4.35 -5.68 2.7 -5 1 C-3.68 1.33 -2.36 1.66 -1 2 C-0.67 1.34 -0.34 0.68 0 0 Z " fill="#6D8988" transform="translate(220,266)"/>
<path d="M0 0 C0.66 0.66 1.32 1.32 2 2 C-0.43842889 5.22220961 -2.78511023 7.58883268 -6 10 C-6 10.66 -6 11.32 -6 12 C-5.34 12 -4.68 12 -4 12 C-4.33 12.66 -4.66 13.32 -5 14 C-6.875 13.75 -6.875 13.75 -9 13 C-10.25 10.9375 -10.25 10.9375 -11 9 C-10.34 9 -9.68 9 -9 9 C-8.67 7.68 -8.34 6.36 -8 5 C-6.576875 4.87625 -6.576875 4.87625 -5.125 4.75 C-1.89538209 4.34925077 -1.89538209 4.34925077 -0.625 1.9375 C-0.41875 1.298125 -0.2125 0.65875 0 0 Z " fill="#627E7F" transform="translate(234,256)"/>
<path d="M0 0 C0 0.33 0 0.66 0 1 C-0.65073486 1.01981934 -1.30146973 1.03963867 -1.97192383 1.06005859 C-4.91919151 1.15529299 -7.86574885 1.26497818 -10.8125 1.375 C-11.83666016 1.4059375 -12.86082031 1.436875 -13.91601562 1.46875 C-15.39038086 1.52675781 -15.39038086 1.52675781 -16.89453125 1.5859375 C-17.80050049 1.6173584 -18.70646973 1.6487793 -19.63989258 1.68115234 C-22.26525392 1.86027919 -22.26525392 1.86027919 -25 4 C-27.3329614 4.04166002 -29.6670386 4.04166002 -32 4 C-32.99 4.33 -33.98 4.66 -35 5 C-37.1875 4.0625 -37.1875 4.0625 -39 3 C-25.93696218 -0.18518194 -13.39050074 -0.34321078 0 0 Z " fill="#5B6E6C" transform="translate(302,105)"/>
<path d="M0 0 C3.42062263 1.43590972 5.23874919 3.19810023 7.5625 6.0625 C10.18282506 9.33584139 10.18282506 9.33584139 14 11 C14.33 10.34 14.66 9.68 15 9 C18 12.625 18 12.625 18 16 C17.01 16.33 16.02 16.66 15 17 C13.66666667 15.66666667 12.33333333 14.33333333 11 13 C9.824375 11.88625 9.824375 11.88625 8.625 10.75 C5.41666311 7.38888517 2.7165588 3.76210721 0 0 Z " fill="#516E6E" transform="translate(358,143)"/>
<path d="M0 0 C0.67095703 0.58007812 0.67095703 0.58007812 1.35546875 1.171875 C1.96003906 1.69265625 2.56460938 2.2134375 3.1875 2.75 C3.82171875 3.29785156 4.4559375 3.84570312 5.109375 4.41015625 C6.67331099 5.72528424 8.29861024 6.96705018 9.9375 8.1875 C10.618125 8.785625 11.29875 9.38375 12 10 C12 10.99 12 11.98 12 13 C6.95716206 12.2529129 3.97945113 9.05677622 0.625 5.4375 C-0.179375 4.2309375 -0.179375 4.2309375 -1 3 C-0.67 2.01 -0.34 1.02 0 0 Z " fill="#6A8383" transform="translate(238,254)"/>
<path d="M0 0 C0.74507813 0.01353516 1.49015625 0.02707031 2.2578125 0.04101562 C4.08885416 0.07622796 5.91952169 0.13003149 7.75 0.1875 C8.08 0.8475 8.41 1.5075 8.75 2.1875 C4.09462644 3.10842281 -0.39685433 3.30955997 -5.125 3.25 C-6.15753906 3.24323242 -6.15753906 3.24323242 -7.2109375 3.23632812 C-8.89066335 3.22466336 -10.57034375 3.20673271 -12.25 3.1875 C-8.60142562 -0.47067589 -4.85390995 -0.16722835 0 0 Z " fill="#49656A" transform="translate(286.25,111.8125)"/>
<path d="M0 0 C1 2 1 2 1 3 C2.32 3.66 3.64 4.32 5 5 C3.02 6.65 1.04 8.3 -1 10 C-1.33 9.34 -1.66 8.68 -2 8 C-3.98 8 -5.96 8 -8 8 C-5.33333333 5.33333333 -2.66666667 2.66666667 0 0 Z " fill="#384A4D" transform="translate(362,286)"/>
<path d="M0 0 C4.89628293 1.50091664 7.92129804 4.31411323 11.5625 7.75 C12.12646484 8.26304687 12.69042969 8.77609375 13.27148438 9.3046875 C16.80457294 12.5939723 19.47898029 15.88253994 22 20 C21.34 20.33 20.68 20.66 20 21 C19.55011719 20.38253906 19.10023438 19.76507813 18.63671875 19.12890625 C14.06704732 13.11232483 9.20634163 8.42166618 3.22265625 3.8125 C1 2 1 2 0 0 Z " fill="#405D5E" transform="translate(339,142)"/>
<path d="M0 0 C0 4.73160367 -3.11227898 7.421594 -6 11 C-6.51433594 11.639375 -7.02867187 12.27875 -7.55859375 12.9375 C-10.43489099 16.40399849 -13.34852584 19.31509253 -17 22 C-17.66 21.67 -18.32 21.34 -19 21 C-18.45472656 20.47792969 -17.90945313 19.95585937 -17.34765625 19.41796875 C-12.0898162 14.28595736 -7.33939382 8.92424227 -2.75 3.1875 C-1 1 -1 1 0 0 Z " fill="#2D494D" transform="translate(362,260)"/>
<path d="M0 0 C-4.90924297 3.92739438 -7.73920552 4.43177893 -14 4 C-14 3.01 -14 2.02 -14 1 C-14.66 0.67 -15.32 0.34 -16 0 C-13.7089095 -0.19441368 -11.41709663 -0.38033135 -9.125 -0.5625 C-7.21074219 -0.71912109 -7.21074219 -0.71912109 -5.2578125 -0.87890625 C-2 -1 -2 -1 0 0 Z " fill="#848673" transform="translate(302,254)"/>
<path d="M0 0 C3.99500618 1.3697164 6.80009492 3.25722422 10 6 C8.02 6.33 6.04 6.66 4 7 C4 7.66 4 8.32 4 9 C2.68 8.67 1.36 8.34 0 8 C-0.98120464 4.94736336 -0.98120464 3.05263664 0 0 Z " fill="#34494A" transform="translate(340,117)"/>
<path d="M0 0 C0.0825 0.61875 0.165 1.2375 0.25 1.875 C0.81258459 4.18437567 0.81258459 4.18437567 3.0625 5.25 C3.701875 5.4975 4.34125 5.745 5 6 C4.67 6.99 4.34 7.98 4 9 C-1.5 9.36666667 -1.5 9.36666667 -3.875 7.625 C-5 6 -5 6 -5 4 C-3.35 4 -1.7 4 0 4 C0 2.68 0 1.36 0 0 Z " fill="#C3A49F" transform="translate(302,222)"/>
<path d="M0 0 C1.89213369 2.38573379 3.02391783 4.07175348 4 7 C2.02 7.99 2.02 7.99 0 9 C0.33 10.32 0.66 11.64 1 13 C-1.81519043 11.59240479 -2.61291638 9.77416723 -4 7 C-3.02391783 4.07175348 -1.89213369 2.38573379 0 0 Z " fill="#283C40" transform="translate(197,256)"/>
<path d="M0 0 C0.33 0 0.66 0 1 0 C1.125 2.875 1.125 2.875 1 6 C0.34 6.66 -0.32 7.32 -1 8 C-1.66 8 -2.32 8 -3 8 C-4.67745682 8.63903117 -6.34561387 9.30341637 -8 10 C-9.125 3.25 -9.125 3.25 -8 1 C-7.34 1 -6.68 1 -6 1 C-5.34 1.99 -4.68 2.98 -4 4 C-1.94074861 4.72382467 -1.94074861 4.72382467 0 5 C0 3.35 0 1.7 0 0 Z " fill="#937577" transform="translate(313,194)"/>
<path d="M0 0 C1.62433191 2.50076998 2.07333427 3.58982529 1.5390625 6.578125 C1.23742187 7.45984375 0.93578125 8.3415625 0.625 9.25 C0.32851562 10.14203125 0.03203125 11.0340625 -0.2734375 11.953125 C-0.51320312 12.62859375 -0.75296875 13.3040625 -1 14 C-1.103125 13.38125 -1.20625 12.7625 -1.3125 12.125 C-1.87525373 9.63473516 -1.87525373 9.63473516 -5 8 C-4.64950425 4.75791433 -4.43778819 3.38472296 -1.9375 1.1875 C-1.298125 0.795625 -0.65875 0.40375 0 0 Z " fill="#7D8373" transform="translate(252,191)"/>
<path d="M0 0 C3.12857014 1.3881735 5.28189174 3.01101878 7.6875 5.4375 C8.28949219 6.03433594 8.89148438 6.63117188 9.51171875 7.24609375 C11 9 11 9 12 12 C8.20405883 11.43573848 6.41289367 9.81748138 3.75 7.125 C3.04359375 6.42632812 2.3371875 5.72765625 1.609375 5.0078125 C0 3 0 3 0 0 Z " fill="#688283" transform="translate(333,160)"/>
<path d="M0 0 C2.46800047 1.15173355 4.04783565 2.04783565 6 4 C6.99 4 7.98 4 9 4 C11.6875 6.5 11.6875 6.5 14 9 C13.67 9.66 13.34 10.32 13 11 C12.01 11.33 11.02 11.66 10 12 C8.894019 10.75160501 7.79029799 9.50120766 6.6875 8.25 C6.07261719 7.55390625 5.45773437 6.8578125 4.82421875 6.140625 C3.12685266 4.14885494 1.54522191 2.11101085 0 0 Z " fill="#4E6061" transform="translate(361,135)"/>
<path d="M0 0 C3.86093856 1.33135812 6.24132985 4.0880704 9 7 C8.34 7.66 7.68 8.32 7 9 C4.37424814 8.79519136 3.29868104 8.32776314 1.515625 6.37109375 C1.09796875 5.73300781 0.6803125 5.09492188 0.25 4.4375 C-0.17796875 3.79683594 -0.6059375 3.15617188 -1.046875 2.49609375 C-1.51867187 1.75552734 -1.51867187 1.75552734 -2 1 C-1.34 0.67 -0.68 0.34 0 0 Z " fill="#74908E" transform="translate(353,134)"/>
<path d="M0 0 C1.2065625 0.0309375 1.2065625 0.0309375 2.4375 0.0625 C2.4375 1.7125 2.4375 3.3625 2.4375 5.0625 C3.4275 4.7325 4.4175 4.4025 5.4375 4.0625 C5.4375 5.0525 5.4375 6.0425 5.4375 7.0625 C4.1175 7.3925 2.7975 7.7225 1.4375 8.0625 C1.4375 7.4025 1.4375 6.7425 1.4375 6.0625 C-0.5425 6.7225 -2.5225 7.3825 -4.5625 8.0625 C-4.8925 7.4025 -5.2225 6.7425 -5.5625 6.0625 C-4.5725 5.7325 -3.5825 5.4025 -2.5625 5.0625 C-2.2325 4.0725 -1.9025 3.0825 -1.5625 2.0625 C-2.2225 1.7325 -2.8825 1.4025 -3.5625 1.0625 C-2.5625 0.0625 -2.5625 0.0625 0 0 Z " fill="#AFA7A4" transform="translate(281.5625,199.9375)"/>
<path d="M0 0 C0.8971875 0.5259375 0.8971875 0.5259375 1.8125 1.0625 C1.23905063 3.92974686 0.9510485 4.9239515 -1.1875 7.0625 C-3.8275 5.0825 -6.4675 3.1025 -9.1875 1.0625 C-7.8675 0.7325 -6.5475 0.4025 -5.1875 0.0625 C-2.1875 -0.9375 -2.1875 -0.9375 0 0 Z " fill="#818775" transform="translate(321.1875,177.9375)"/>
<path d="M0 0 C2.25 2.3125 2.25 2.3125 2.25 6.3125 C-1.125 5.625 -1.125 5.625 -4.75 4.3125 C-6.1875 1.6875 -6.1875 1.6875 -6.75 -0.6875 C-3.66354227 -2.05925899 -2.95986056 -1.81627807 0 0 Z " fill="#25393B" transform="translate(206.75,271.6875)"/>
<path d="M0 0 C1.65 0 3.3 0 5 0 C5 0.99 5 1.98 5 3 C5.66 3.33 6.32 3.66 7 4 C6.34 4 5.68 4 5 4 C5.3403125 4.8971875 5.3403125 4.8971875 5.6875 5.8125 C6 8 6 8 4.6875 9.75 C3 11 3 11 1 11 C0.67 9.02 0.34 7.04 0 5 C1.32 5 2.64 5 4 5 C4 3.68 4 2.36 4 1 C2.68 1.33 1.36 1.66 0 2 C0 1.34 0 0.68 0 0 Z " fill="#CF9095" transform="translate(299,196)"/>
<path d="M0 0 C1.95803507 -0.05389087 3.91648909 -0.09274217 5.875 -0.125 C7.51082031 -0.15980469 7.51082031 -0.15980469 9.1796875 -0.1953125 C12 0 12 0 14 2 C12.35 3.32 10.7 4.64 9 6 C8.34 5.67 7.68 5.34 7 5 C5.46331135 4.77532169 3.92031946 4.59203195 2.375 4.4375 C1.55773437 4.35371094 0.74046875 4.26992187 -0.1015625 4.18359375 C-0.72804688 4.12300781 -1.35453125 4.06242188 -2 4 C-2 3.67 -2 3.34 -2 3 C3.445 2.505 3.445 2.505 9 2 C6.03 1.67 3.06 1.34 0 1 C0 0.67 0 0.34 0 0 Z " fill="#6D6D6B" transform="translate(298,234)"/>
<path d="M0 0 C-0.60328125 0.26554688 -1.2065625 0.53109375 -1.828125 0.8046875 C-2.62734375 1.15789062 -3.4265625 1.51109375 -4.25 1.875 C-5.03890625 2.22304687 -5.8278125 2.57109375 -6.640625 2.9296875 C-7.41921875 3.28289062 -8.1978125 3.63609375 -9 4 C-9.73734375 4.31195313 -10.4746875 4.62390625 -11.234375 4.9453125 C-13.34407273 5.94509483 -13.34407273 5.94509483 -14 9 C-14.66 8.67 -15.32 8.34 -16 8 C-16 7.67 -16 7.34 -16 7 C-16.66 6.67 -17.32 6.34 -18 6 C-16.08588443 5.01585567 -14.1686033 4.03786651 -12.25 3.0625 C-11.18265625 2.51722656 -10.1153125 1.97195312 -9.015625 1.41015625 C-2.89959839 -1.4497992 -2.89959839 -1.4497992 0 0 Z " fill="#6E776C" transform="translate(282,168)"/>
<path d="M0 0 C0.33 0.99 0.66 1.98 1 3 C-0.28062485 4.7074998 -1.61767557 6.37373596 -3 8 C-3.33 8.99 -3.66 9.98 -4 11 C-6.0625 11.6875 -6.0625 11.6875 -8 12 C-7.34 10.02 -6.68 8.04 -6 6 C-5.34 6 -4.68 6 -4 6 C-3.8453125 5.071875 -3.8453125 5.071875 -3.6875 4.125 C-3 2 -3 2 0 0 Z " fill="#394C4E" transform="translate(203,151)"/>
<path d="M0 0 C0.99 0.33 1.98 0.66 3 1 C-0.26720791 5.38894929 -3.54898478 9.75259665 -7 14 C-7.66 12.68 -8.32 11.36 -9 10 C-7.37448533 8.21193386 -6.18305958 7.07766164 -3.9375 6.125 C-1.28822249 4.58670984 -0.89964656 2.84888077 0 0 Z " fill="#516F72" transform="translate(341,145)"/>
<path d="M0 0 C-1.32 0.33 -2.64 0.66 -4 1 C-3.34 2.65 -2.68 4.3 -2 6 C-3.8125 6.625 -3.8125 6.625 -6 7 C-6.99 6.34 -7.98 5.68 -9 5 C-9 4.34 -9 3.68 -9 3 C-9.99 2.67 -10.98 2.34 -12 2 C-10.75579353 1.4654744 -9.50429064 0.94791389 -8.25 0.4375 C-7.55390625 0.14746094 -6.8578125 -0.14257812 -6.140625 -0.44140625 C-3.69987216 -1.07831803 -2.3596345 -0.80248831 0 0 Z " fill="#3A4A4B" transform="translate(262,110)"/>
<path d="M0 0 C0.99 0 1.98 0 3 0 C3 2.31 3 4.62 3 7 C3.99 7 4.98 7 6 7 C6.33 8.65 6.66 10.3 7 12 C6.34 11.67 5.68 11.34 5 11 C5 10.01 5 9.02 5 8 C3.68 8.33 2.36 8.66 1 9 C-1 6 -1 6 -0.625 2.8125 C-0.41875 1.884375 -0.2125 0.95625 0 0 Z " fill="#26373C" transform="translate(382,160)"/>
<path d="M0 0 C2.82800791 1.29719493 4.9647032 2.71024882 7.25 4.8125 C10.89471338 8.03028383 14.8153599 10.54356192 19 13 C18.01 13.33 17.02 13.66 16 14 C10.11214548 10.55478482 4.51164782 6.13394407 0 1 C0 0.67 0 0.34 0 0 Z " fill="#365252" transform="translate(241,262)"/>
<path d="M0 0 C1.32 0.66 2.64 1.32 4 2 C1.36 4.97 -1.28 7.94 -4 11 C-4.66 10.67 -5.32 10.34 -6 10 C-5.34 8.35 -4.68 6.7 -4 5 C-3.01 5 -2.02 5 -1 5 C-0.67 3.35 -0.34 1.7 0 0 Z " fill="#6C776A" transform="translate(327,237)"/>
<path d="M0 0 C0.66 0 1.32 0 2 0 C2.08097324 2.27024968 2.13917704 4.54132075 2.1875 6.8125 C2.22230469 8.07707031 2.25710938 9.34164062 2.29296875 10.64453125 C2 14 2 14 -1 17 C-0.67 11.39 -0.34 5.78 0 0 Z " fill="#202E31" transform="translate(395,218)"/>
<path d="M0 0 C0.91007812 0.00902344 1.82015625 0.01804688 2.7578125 0.02734375 C3.45648438 0.03894531 4.15515625 0.05054688 4.875 0.0625 C2.875 3.0625 2.875 3.0625 -0.125 4.0625 C-0.125 4.7225 -0.125 5.3825 -0.125 6.0625 C-1.775 6.0625 -3.425 6.0625 -5.125 6.0625 C-5.785 4.4125 -6.445 2.7625 -7.125 1.0625 C-4.60024538 -0.19987731 -2.81299534 -0.03606404 0 0 Z " fill="#7A7971" transform="translate(296.125,182.9375)"/>
<path d="M0 0 C0.66 0.33 1.32 0.66 2 1 C2 1.66 2 2.32 2 3 C-1.85831875 6.6642613 -5.64147506 8.60791281 -11 9 C-7.56638098 5.36440339 -4.2026393 2.63886654 0 0 Z " fill="#3A5050" transform="translate(233,121)"/>
<path d="M0 0 C2.31 0.33 4.62 0.66 7 1 C7 1.99 7 2.98 7 4 C4.6875 5.125 4.6875 5.125 2 6 C1.01 5.34 0.02 4.68 -1 4 C-0.67 2.68 -0.34 1.36 0 0 Z " fill="#737B6A" transform="translate(308,250)"/>
<path d="M0 0 C0.33 0 0.66 0 1 0 C1.33 3.3 1.66 6.6 2 10 C1.67 10 1.34 10 1 10 C0.67 13.96 0.34 17.92 0 22 C-0.33 22 -0.66 22 -1 22 C-1.22531972 18.70926338 -1.42735982 15.41750581 -1.625 12.125 C-1.68945312 11.18785156 -1.75390625 10.25070313 -1.8203125 9.28515625 C-1.871875 8.38925781 -1.9234375 7.49335938 -1.9765625 6.5703125 C-2.02893066 5.74289551 -2.08129883 4.91547852 -2.13525391 4.06298828 C-2 2 -2 2 0 0 Z " fill="#42575C" transform="translate(357,197)"/>
<path d="M0 0 C0 0.99 0 1.98 0 3 C-3.22791555 5.1519437 -4.28400809 5.20086443 -8 5 C-7.67 3.35 -7.34 1.7 -7 0 C-3.86650268 -1.04449911 -3.01031744 -0.93423645 0 0 Z " fill="#26373A" transform="translate(360,294)"/>
<path d="M0 0 C-3.64578405 3.32875935 -8.21084385 5.0219329 -13 6 C-15.28125 5.578125 -15.28125 5.578125 -17 5 C-16 4 -16 4 -13.4375 3.9375 C-12.2309375 3.9684375 -12.2309375 3.9684375 -11 4 C-11 3.34 -11 2.68 -11 2 C-7.17010894 0.19769832 -4.21878192 -0.19622241 0 0 Z " fill="#405552" transform="translate(335,312)"/>
<path d="M0 0 C1.6415049 3.2830098 0.51888624 6.42545033 0 10 C0.66 10 1.32 10 2 10 C2 11.32 2 12.64 2 14 C1.01 14 0.02 14 -1 14 C-2.16983345 11.6603331 -2.1661241 10.16608473 -2.1875 7.5625 C-2.20167969 6.78003906 -2.21585937 5.99757812 -2.23046875 5.19140625 C-2 3 -2 3 0 0 Z " fill="#EDAEAE" transform="translate(301,206)"/>
<path d="M0 0 C0.66 0 1.32 0 2 0 C2 0.66 2 1.32 2 2 C3.32 2.33 4.64 2.66 6 3 C5.01 3.495 5.01 3.495 4 4 C3.67 4.99 3.34 5.98 3 7 C1.02 7 -0.96 7 -3 7 C-2.67 6.34 -2.34 5.68 -2 5 C-1.67 4.01 -1.34 3.02 -1 2 C-0.67 1.34 -0.34 0.68 0 0 Z " fill="#B6A9A2" transform="translate(289,187)"/>
<path d="M0 0 C0.66 0 1.32 0 2 0 C2 0.66 2 1.32 2 2 C3.32 2.66 4.64 3.32 6 4 C5.67 5.32 5.34 6.64 5 8 C2.4636387 6.98545548 1.20648539 6.3146444 -0.3125 4 C-0.539375 3.34 -0.76625 2.68 -1 2 C-0.67 1.34 -0.34 0.68 0 0 Z " fill="#747D70" transform="translate(256,241)"/>
<path d="M0 0 C1.48165503 2.96331006 0.48358108 4.89704017 -0.3125 8.0625 C-0.57675781 9.14660156 -0.84101563 10.23070312 -1.11328125 11.34765625 C-2 14 -2 14 -4 15 C-4.50610724 8.92671312 -3.04157942 5.22771463 0 0 Z " fill="#394C4D" transform="translate(194,163)"/>
<path d="M0 0 C1.66905241 3.33810482 2.8741386 6.46157845 4 10 C2.02 10 0.04 10 -2 10 C-1.34 6.7 -0.68 3.4 0 0 Z " fill="#858774" transform="translate(251,224)"/>
<path d="M0 0 C1.60725635 3.21451269 1.05748185 6.43612536 1 10 C0.34 10 -0.32 10 -1 10 C-1 10.99 -1 11.98 -1 13 C-1.99 13.33 -2.98 13.66 -4 14 C-3.71715982 12.22773547 -3.42339502 10.457212 -3.125 8.6875 C-2.96257812 7.70136719 -2.80015625 6.71523437 -2.6328125 5.69921875 C-2 3 -2 3 0 0 Z " fill="#203033" transform="translate(196,162)"/>
<path d="M0 0 C1.134375 0.020625 2.26875 0.04125 3.4375 0.0625 C0.86233378 2.69996863 -1.10581396 3.28137499 -4.671875 3.35546875 C-6.21902231 3.33563353 -7.76603396 3.3000101 -9.3125 3.25 C-10.10527344 3.23646484 -10.89804687 3.22292969 -11.71484375 3.20898438 C-13.66435564 3.17375223 -15.61351626 3.11994821 -17.5625 3.0625 C-17.5625 2.7325 -17.5625 2.4025 -17.5625 2.0625 C-16.63566406 2.00191406 -15.70882813 1.94132813 -14.75390625 1.87890625 C-12.95759766 1.75322266 -12.95759766 1.75322266 -11.125 1.625 C-9.33255859 1.50318359 -9.33255859 1.50318359 -7.50390625 1.37890625 C-3.81668574 0.98227297 -3.93452412 0.06902674 0 0 Z " fill="#3F585B" transform="translate(300.5625,144.9375)"/>
<path d="M0 0 C3.34373475 0.55728913 6.03312999 1.35173889 9 3 C8.67 4.65 8.34 6.3 8 8 C6.35 7.67 4.7 7.34 3 7 C3.99 6.01 4.98 5.02 6 4 C4.02 3.01 2.04 2.02 0 1 C0 0.67 0 0.34 0 0 Z " fill="#365353" transform="translate(247,301)"/>
<path d="M0 0 C0.33 0.66 0.66 1.32 1 2 C1.804375 2.12375 2.60875 2.2475 3.4375 2.375 C6 3 6 3 7.375 4.875 C8 7 8 7 7 10 C6.401875 9.54625 5.80375 9.0925 5.1875 8.625 C3.49409348 7.36704087 1.75522914 6.17015276 0 5 C0.66 4.67 1.32 4.34 2 4 C1.34 3.67 0.68 3.34 0 3 C0 2.01 0 1.02 0 0 Z " fill="#A19C98" transform="translate(303,187)"/>
<path d="M0 0 C0.66 0.33 1.32 0.66 2 1 C2 1.66 2 2.32 2 3 C2.99 3 3.98 3 5 3 C5.625 5.375 5.625 5.375 6 8 C5.34 8.66 4.68 9.32 4 10 C3.13342884 8.90554162 2.28207276 7.79902219 1.4375 6.6875 C0.96183594 6.07261719 0.48617188 5.45773438 -0.00390625 4.82421875 C-0.33261719 4.22222656 -0.66132813 3.62023437 -1 3 C-0.67 2.01 -0.34 1.02 0 0 Z " fill="#293C40" transform="translate(372,148)"/>
<path d="M0 0 C3.93673644 1.31224548 6.22719294 2.91910327 9 6 C8.67 6.99 8.34 7.98 8 9 C7.4225 8.360625 6.845 7.72125 6.25 7.0625 C4.01937599 5.01776132 2.92563609 4.41794801 0 4 C0 2.68 0 1.36 0 0 Z " fill="#394D4C" transform="translate(359,131)"/>
<path d="M0 0 C1.98 0.495 1.98 0.495 4 1 C3.67 2.98 3.34 4.96 3 7 C2.01 7 1.02 7 0 7 C-1.125 2.25 -1.125 2.25 0 0 Z " fill="#213334" transform="translate(193,253)"/>
<path d="M0 0 C1.09651823 3.41139003 0.94215473 6.20655581 0.5625 9.75 C0.40974609 11.22726563 0.40974609 11.22726563 0.25390625 12.734375 C0.12822266 13.85585937 0.12822266 13.85585937 0 15 C-0.99 14.67 -1.98 14.34 -3 14 C-2.28547412 9.23649415 -1.20465156 4.65798604 0 0 Z " fill="#405254" transform="translate(188,176)"/>
<path d="M0 0 C0.66 0.33 1.32 0.66 2 1 C-1.625 6.75 -1.625 6.75 -5 9 C-5.33 8.01 -5.66 7.02 -6 6 C-5.34 5.01 -4.68 4.02 -4 3 C-3.01 3 -2.02 3 -1 3 C-0.67 2.01 -0.34 1.02 0 0 Z " fill="#577577" transform="translate(244,273)"/>
<path d="M0 0 C0.99 0.33 1.98 0.66 3 1 C-0.07999946 4.67230705 -2.2482602 5.56802365 -7 6 C-6.34 4.35 -5.68 2.7 -5 1 C-3.68 1.33 -2.36 1.66 -1 2 C-0.67 1.34 -0.34 0.68 0 0 Z " fill="#5A7879" transform="translate(220,266)"/>
<path d="M0 0 C0.33 0 0.66 0 1 0 C1.2236337 1.41433206 1.42826476 2.83167618 1.625 4.25 C1.74101562 5.03890625 1.85703125 5.8278125 1.9765625 6.640625 C2.00319395 9.32152459 1.36592084 10.72694089 0 13 C-1.40692958 9.21887676 -2.45030866 6.05277796 -2 2 C-1.34 1.34 -0.68 0.68 0 0 Z " fill="#394C4C" transform="translate(186,230)"/>
<path d="M0 0 C0.98484375 0.29648438 1.9696875 0.59296875 2.984375 0.8984375 C3.73203125 1.13820312 4.4796875 1.37796875 5.25 1.625 C4.92 2.615 4.59 3.605 4.25 4.625 C2.455625 3.9134375 2.455625 3.9134375 0.625 3.1875 C-2.81414238 1.89017227 -6.08895604 1.08263049 -9.75 0.625 C-6.11227071 -1.78283034 -4.06572337 -1.25843818 0 0 Z " fill="#313D38" transform="translate(305.75,166.375)"/>
<path d="M0 0 C3.68069887 1.53643852 5.98775204 3.78150945 8.75 6.625 C9.54921875 7.44226563 10.3484375 8.25953125 11.171875 9.1015625 C12.07679688 10.04128906 12.07679688 10.04128906 13 11 C12.34 11.66 11.68 12.32 11 13 C9.53927468 11.39801112 8.08150284 9.79332884 6.625 8.1875 C5.81289063 7.29417969 5.00078125 6.40085938 4.1640625 5.48046875 C2 3 2 3 0 0 Z " fill="#3D5A59" transform="translate(334,159)"/>
<path d="M0 0 C1.65 0.99 3.3 1.98 5 3 C4.67 3.66 4.34 4.32 4 5 C3.01 5.33 2.02 5.66 1 6 C0.34 5.34 -0.32 4.68 -1 4 C-1.99 4 -2.98 4 -4 4 C-4 3.34 -4 2.68 -4 2 C-2.68 2 -1.36 2 0 2 C0 1.34 0 0.68 0 0 Z " fill="#3A5252" transform="translate(373,145)"/>
<path d="M0 0 C0.99 0.33 1.98 0.66 3 1 C1.875 3.4375 1.875 3.4375 0 6 C-3.1875 6.8125 -3.1875 6.8125 -6 7 C-4.02 4.69 -2.04 2.38 0 0 Z " fill="#506C6F" transform="translate(232,254)"/>
<path d="M0 0 C1.32 1.32 2.64 2.64 4 4 C3.34 5.32 2.68 6.64 2 8 C0.68 7.34 -0.64 6.68 -2 6 C-1.34 4.02 -0.68 2.04 0 0 Z " fill="#7E9D99" transform="translate(229,281)"/>
<path d="M0 0 C1.32 0.66 2.64 1.32 4 2 C2.68 2.33 1.36 2.66 0 3 C0 4.98 0 6.96 0 9 C-0.99 9 -1.98 9 -3 9 C-3.33 8.34 -3.66 7.68 -4 7 C-3.22265625 5.2734375 -3.22265625 5.2734375 -2.0625 3.375 C-1.381875 2.26125 -0.70125 1.1475 0 0 Z " fill="#5B797B" transform="translate(348,137)"/>
<path d="M0 0 C1.98 0.66 3.96 1.32 6 2 C5.01 2.33 4.02 2.66 3 3 C3 4.32 3 5.64 3 7 C1.68 7 0.36 7 -1 7 C-1.33 6.01 -1.66 5.02 -2 4 C-1.34 3.67 -0.68 3.34 0 3 C0 2.01 0 1.02 0 0 Z " fill="#37484C" transform="translate(333,114)"/>
<path d="M0 0 C0.66 0.99 1.32 1.98 2 3 C2.66 2.01 3.32 1.02 4 0 C4.66 0 5.32 0 6 0 C4.90931332 3.77545388 4.0916909 6.47043472 1 9 C-1.125 2.25 -1.125 2.25 0 0 Z " fill="#7D746C" transform="translate(307,219)"/>
<path d="M0 0 C0.33 0.99 0.66 1.98 1 3 C-0.7578125 3.9765625 -2.515625 4.953125 -4.2734375 5.9296875 C-6.1612614 7.00897274 -6.1612614 7.00897274 -8 9 C-7.9375 6.75 -7.9375 6.75 -7 4 C-4.7691525 2.32150176 -2.52594094 1.24000737 0 0 Z " fill="#584B46" transform="translate(311,200)"/>
<path d="M0 0 C0.33 0.66 0.66 1.32 1 2 C2.32 1.67 3.64 1.34 5 1 C5 2.32 5 3.64 5 5 C3.02 5 1.04 5 -1 5 C-0.67 3.35 -0.34 1.7 0 0 Z " fill="#E6A0A2" transform="translate(298,196)"/>
<path d="M0 0 C1.22589844 0.15275391 1.22589844 0.15275391 2.4765625 0.30859375 C3.41628906 0.43427734 3.41628906 0.43427734 4.375 0.5625 C4.375 0.8925 4.375 1.2225 4.375 1.5625 C2.725 1.5625 1.075 1.5625 -0.625 1.5625 C-0.955 2.2225 -1.285 2.8825 -1.625 3.5625 C-3.275 3.2325 -4.925 2.9025 -6.625 2.5625 C-6.625 1.9025 -6.625 1.2425 -6.625 0.5625 C-4.10446405 -0.69776798 -2.7707902 -0.35624445 0 0 Z " fill="#40575A" transform="translate(277.625,277.4375)"/>
<path d="M0 0 C0.99 0.33 1.98 0.66 3 1 C3.33 3.64 3.66 6.28 4 9 C2.68 8.34 1.36 7.68 0 7 C0 4.69 0 2.38 0 0 Z " fill="#CF8A8B" transform="translate(296,211)"/>
<path d="M0 0 C0 0.99 0 1.98 0 3 C1.65 3.33 3.3 3.66 5 4 C5 4.33 5 4.66 5 5 C2.03 4.67 -0.94 4.34 -4 4 C-4.33 3.01 -4.66 2.02 -5 1 C-2 0 -2 0 0 0 Z " fill="#B4A9A2" transform="translate(303,187)"/>
<path d="M0 0 C0.99 0.99 1.98 1.98 3 3 C2.67 3.66 2.34 4.32 2 5 C1.01 5.33 0.02 5.66 -1 6 C-1.33 6.66 -1.66 7.32 -2 8 C-2.6875 6.25 -2.6875 6.25 -3 4 C-1.5625 1.75 -1.5625 1.75 0 0 Z " fill="#384B4D" transform="translate(202,266)"/>
<path d="M0 0 C0.33 0.66 0.66 1.32 1 2 C4.3 2 7.6 2 11 2 C11 2.66 11 3.32 11 4 C7.04 4 3.08 4 -1 4 C-0.67 2.68 -0.34 1.36 0 0 Z " fill="#DDB9B6" transform="translate(297,228)"/>
<path d="M0 0 C1.1446875 0.2475 1.1446875 0.2475 2.3125 0.5 C5.03596236 1.09145396 5.03596236 1.09145396 8 1 C7.67 1.99 7.34 2.98 7 4 C5.02 4 3.04 4 1 4 C0.67 2.68 0.34 1.36 0 0 Z " fill="#9A7B72" transform="translate(299,227)"/>
<path d="M0 0 C1.98 0.99 1.98 0.99 4 2 C4 3.32 4 4.64 4 6 C2.68 6 1.36 6 0 6 C0 4.02 0 2.04 0 0 Z " fill="#A35E66" transform="translate(298,220)"/>
<path d="M0 0 C0.66 0 1.32 0 2 0 C1.375 1.875 1.375 1.875 0 4 C-3.125 5.25 -3.125 5.25 -6 6 C-5.67 4.35 -5.34 2.7 -5 1 C-3.35 1.33 -1.7 1.66 0 2 C0 1.34 0 0.68 0 0 Z " fill="#638181" transform="translate(367,156)"/>
<path d="M0 0 C2.50357192 1.25178596 4.06433379 2.99981158 6 5 C5.01 5.495 5.01 5.495 4 6 C1.96855359 5.06553465 -0.03533587 4.06775224 -2 3 C-1.34 2.67 -0.68 2.34 0 2 C0 1.34 0 0.68 0 0 Z " fill="#394D4D" transform="translate(237,304)"/>
<path d="M0 0 C1.32 0.33 2.64 0.66 4 1 C4.33 3.64 4.66 6.28 5 9 C2.1997768 7.5998884 1.43223902 5.73427449 0 3 C0 2.01 0 1.02 0 0 Z " fill="#425655" transform="translate(193,260)"/>
<path d="M0 0 C1.32 0.33 2.64 0.66 4 1 C3.41196203 4.02419525 2.77321882 7.01758453 2 10 C0.39644899 6.49223216 -0.22036864 3.85645121 0 0 Z " fill="#D0C9B6" transform="translate(304,207)"/>
<path d="M0 0 C0.66 0 1.32 0 2 0 C3.3271261 3.9813783 3.06915913 7.85045227 3 12 C2.67 12 2.34 12 2 12 C2 10.02 2 8.04 2 6 C1.34 6 0.68 6 0 6 C0 4.02 0 2.04 0 0 Z " fill="#384A4D" transform="translate(395,192)"/>
<path d="M0 0 C0.598125 0.226875 1.19625 0.45375 1.8125 0.6875 C-0.52083333 3.02083333 -2.85416667 5.35416667 -5.1875 7.6875 C-5.41803497 4.84423536 -5.54653101 3.22604651 -3.9375 0.8125 C-2.1875 -0.3125 -2.1875 -0.3125 0 0 Z " fill="#5B5953" transform="translate(289.1875,185.3125)"/>
<path d="M0 0 C0.66 0.33 1.32 0.66 2 1 C2 1.99 2 2.98 2 4 C0.02 4.66 -1.96 5.32 -4 6 C-2.25 1.125 -2.25 1.125 0 0 Z " fill="#7C806A" transform="translate(271,173)"/>
<path d="M0 0 C2.22825644 2.22825644 2.69239369 3.65761628 3.625 6.625 C4.01558594 7.85089844 4.01558594 7.85089844 4.4140625 9.1015625 C4.60742188 9.72804687 4.80078125 10.35453125 5 11 C4.34 10.67 3.68 10.34 3 10 C3 9.01 3 8.02 3 7 C2.01 7 1.02 7 0 7 C0 4.69 0 2.38 0 0 Z " fill="#516364" transform="translate(385,160)"/>
<path d="M0 0 C2.475 0.99 2.475 0.99 5 2 C5 2.99 5 3.98 5 5 C4.01 5.495 4.01 5.495 3 6 C3 5.34 3 4.68 3 4 C2.01 4 1.02 4 0 4 C0 2.68 0 1.36 0 0 Z " fill="#516E6F" transform="translate(246,269)"/>
<path d="M0 0 C0.33 0 0.66 0 1 0 C1.33 3.63 1.66 7.26 2 11 C0.68 11.33 -0.64 11.66 -2 12 C-2 9 -2 9 -1 8 C-0.76924918 6.65252916 -0.58846937 5.29622435 -0.4375 3.9375 C-0.2209375 1.9884375 -0.2209375 1.9884375 0 0 Z " fill="#959492" transform="translate(285,216)"/>
<path d="M0 0 C0.66 0.33 1.32 0.66 2 1 C2.625 3.0625 2.625 3.0625 3 5 C0.03 4.505 0.03 4.505 -3 4 C-2.01 2.68 -1.02 1.36 0 0 Z " fill="#7A7B79" transform="translate(277,200)"/>
<path d="M0 0 C0.66 0.99 1.32 1.98 2 3 C0.35 4.65 -1.3 6.3 -3 8 C-3 4.42424104 -1.91159393 2.94704065 0 0 Z " fill="#6C776C" transform="translate(252,186)"/>
<path d="M0 0 C0.75 1.75 0.75 1.75 1 4 C-0.9375 6.25 -0.9375 6.25 -3 8 C-3.33 7.01 -3.66 6.02 -4 5 C-2.0625 2.3125 -2.0625 2.3125 0 0 Z " fill="#648283" transform="translate(339,152)"/>
<path d="M0 0 C2 1.3125 2 1.3125 4 3 C4 3.99 4 4.98 4 6 C2.0625 5.6875 2.0625 5.6875 0 5 C-0.33 4.01 -0.66 3.02 -1 2 C-0.67 1.34 -0.34 0.68 0 0 Z " fill="#83A1A0" transform="translate(368,148)"/>
<path d="M0 0 C1.32 0.66 2.64 1.32 4 2 C3.67 3.32 3.34 4.64 3 6 C1.68 5.01 0.36 4.02 -1 3 C-0.67 2.01 -0.34 1.02 0 0 Z " fill="#819E9C" transform="translate(361,141)"/>
<path d="M0 0 C0.598125 0.350625 1.19625 0.70125 1.8125 1.0625 C1.4825 1.7225 1.1525 2.3825 0.8125 3.0625 C-0.8375 3.0625 -2.4875 3.0625 -4.1875 3.0625 C-4.5175 2.0725 -4.8475 1.0825 -5.1875 0.0625 C-2.1875 -0.9375 -2.1875 -0.9375 0 0 Z " fill="#28393D" transform="translate(263.1875,111.9375)"/>
<path d="M0 0 C0.33 0.99 0.66 1.98 1 3 C2.32 2.67 3.64 2.34 5 2 C5.33 3.65 5.66 5.3 6 7 C5.01 6.67 4.02 6.34 3 6 C3.33 5.34 3.66 4.68 4 4 C2.68 4 1.36 4 0 4 C0 2.68 0 1.36 0 0 Z " fill="#615851" transform="translate(309,224)"/>
<path d="M0 0 C0.33 0 0.66 0 1 0 C1 1.98 1 3.96 1 6 C-0.32 6.33 -1.64 6.66 -3 7 C-1.125 1.125 -1.125 1.125 0 0 Z " fill="#A9A799" transform="translate(313,220)"/>
<path d="M0 0 C1 3 1 3 0 6 C-2.0625 7.6875 -2.0625 7.6875 -4 9 C-2.25 2.25 -2.25 2.25 0 0 Z " fill="#9D9793" transform="translate(288,187)"/>
<path d="M0 0 C2.31 0.33 4.62 0.66 7 1 C5 3 5 3 1.875 3.125 C0.451875 3.063125 0.451875 3.063125 -1 3 C-0.67 2.01 -0.34 1.02 0 0 Z " fill="#7F7F69" transform="translate(281,170)"/>
<path d="M0 0 C0 0.99 0 1.98 0 3 C-0.61875 3.0825 -1.2375 3.165 -1.875 3.25 C-4.18437567 3.81258459 -4.18437567 3.81258459 -5.25 6.0625 C-5.4975 6.701875 -5.745 7.34125 -6 8 C-6.66 7.01 -7.32 6.02 -8 5 C-4.04 2.525 -4.04 2.525 0 0 Z " fill="#536F73" transform="translate(369,157)"/>
<path d="M0 0 C3.16115776 1.36983503 3.9927092 1.9890638 6 5 C2.48283697 5 1.62878252 4.17554415 -1 2 C-0.67 1.34 -0.34 0.68 0 0 Z " fill="#88A2A0" transform="translate(218,281)"/>
<path d="M0 0 C1.65 0.99 3.3 1.98 5 3 C4.67 3.66 4.34 4.32 4 5 C1.5625 4.625 1.5625 4.625 -1 4 C-1.33 3.34 -1.66 2.68 -2 2 C-1.34 2 -0.68 2 0 2 C0 1.34 0 0.68 0 0 Z " fill="#506A6B" transform="translate(250,265)"/>
<path d="M0 0 C1.32 0.33 2.64 0.66 4 1 C4 1.66 4 2.32 4 3 C4.66 3.33 5.32 3.66 6 4 C5.01 4.495 5.01 4.495 4 5 C1.875 4.0625 1.875 4.0625 0 3 C0 2.01 0 1.02 0 0 Z " fill="#A27C81" transform="translate(268,201)"/>
<path d="M0 0 C0.66 0.33 1.32 0.66 2 1 C0.68 3.31 -0.64 5.62 -2 8 C-2.66 7.67 -3.32 7.34 -4 7 C-4 4 -4 4 -2 1.8125 C-1.34 1.214375 -0.68 0.61625 0 0 Z " fill="#4C6C6E" transform="translate(347,136)"/>
</svg>
